<svg width="100" height="105" viewBox="0 0 100 105" xmlns="http://www.w3.org/2000/svg">
    <g fill-rule="nonzero" fill="none">
        <path d="M51.755 64.777h32.899a2.363 2.363 0 0 1 1.795.74c4.15 4.169 8.324 8.318 12.474 12.49a3.485 3.485 0 0 1-1.336 5.836c-.418.13-.854.19-1.291.18h-11.31c-2.53 0-5.066-.028-7.596 0a12.315 12.315 0 0 1-9.167-3.793 1912.2 1912.2 0 0 0-9.004-9.005 1.127 1.127 0 0 0-.451-.372c0 .092-.02.144-.02.196v29.998c0 .4.144.464.5.464h22.08a1.755 1.755 0 0 0 1.915-1.9V88.029c0-.4.084-.551.503-.515.419.021.838.021 1.256 0 .472 0 .947.028 1.42 0 .263 0 .33.076.33.336 0 4.06.033 8.122-.027 12.183-.044 2.77-2.419 4.96-5.281 4.968H18.797c-2.515 0-4.498-1.355-5.25-3.597a5.323 5.323 0 0 1-.28-1.715V87.94c0-.351.08-.475.444-.447.436.032.872 0 1.312 0 .44 0 .84.044 1.255 0 .416-.044.512.092.508.503v11.472c0 1.335.68 2.023 1.999 2.023h35.953c.447 0 .523-.136.523-.544v-29.61c0-.164.08-.356-.116-.552-.135.16-.26.32-.4.46a7369.756 7369.756 0 0 1-9.099 9.121 12.123 12.123 0 0 1-8.883 3.665H3.541A3.434 3.434 0 0 1 .114 81.37a3.413 3.413 0 0 1 1.004-3.401c2.617-2.612 5.232-5.226 7.844-7.843 1.519-1.518 3.054-3.025 4.553-4.564a2.283 2.283 0 0 1 1.887-.784c.452.032.908 0 1.364 0h34.989zM3.53 80.53H36.612a9.032 9.032 0 0 0 6.708-2.798c2.986-3.014 5.997-5.996 8.999-9.01.12-.12.292-.211.348-.455H16.214a1.04 1.04 0 0 0-.8.34A4670.87 4670.87 0 0 1 3.928 80.098c-.112.112-.216.232-.4.432zm57.753-12.231c3.347 3.353 6.58 6.655 9.887 9.893a8.28 8.28 0 0 0 5.997 2.33h18.738a.772.772 0 0 0 .568-.124 5.05 5.05 0 0 1-.508-.4c-3.777-3.77-7.548-7.544-11.314-11.32a1.2 1.2 0 0 0-.951-.4H61.846l-.564.02z" fill="#FFF"/>
        <path d="M51.755 64.777H16.766v-1.714c.38-.024.762-.024 1.143 0 .496.052.62-.116.62-.612-.016-8.487-.016-16.973 0-25.457 0-2.175 1.495-3.666 3.678-3.666h16.79c.48 0 .553.144.549.576-.02 2.658 0 5.316 0 7.994 0 1.255.703 1.95 1.967 1.95h8.031c.4 0 .508.1.504.508-.02 2.55 0 5.1 0 7.647v10.596c0 .4.1.536.508.504.408-.032.835 0 1.255 0a24.46 24.46 0 0 0-.056 1.674zM29.071 52.55h-6.608c-.348 0-.468.076-.456.444a45.87 45.87 0 0 1 0 2.674c0 .308.08.4.4.4h13.217c.3 0 .4-.072.4-.4a54.207 54.207 0 0 1 0-2.674c0-.356-.092-.452-.448-.448-2.171.012-4.338.004-6.505.004zm-1.799-15.752h-4.861c-.296 0-.4.064-.4.4.02.91 0 1.818 0 2.73 0 .3.072.4.4.4h9.719c.371 0 .4-.14.4-.444 0-.872-.025-1.747 0-2.623 0-.347-.08-.46-.444-.451-1.612.016-3.215-.012-4.814-.012zm7.036 8.741h-4.861c-.368 0-.452.108-.444.456.024.89.024 1.781 0 2.674 0 .324.108.4.4.4h9.719c.316 0 .4-.096.4-.4 0-.891-.028-1.783 0-2.674 0-.376-.116-.444-.46-.44-1.587.008-3.17 0-4.754 0v-.016zm-7.116 17.504h4.914c.303 0 .4-.072.4-.4a58.264 58.264 0 0 1 0-2.73c0-.308-.085-.4-.4-.4h-9.72c-.303 0-.4.072-.4.4.02.891.025 1.783 0 2.674 0 .36.093.452.449.448 1.607-.004 3.19.008 4.757.008zM42.988 52.55h-3.11c-.308 0-.4.084-.4.4.018.909.018 1.819 0 2.73 0 .312.088.4.4.4h6.22c.308 0 .4-.084.4-.4a66.586 66.586 0 0 1 0-2.73c0-.312-.088-.4-.4-.4-1.02.012-2.055 0-3.094 0h-.016zm-3.526 10.493h3.166c.284 0 .372-.072.368-.364a69.941 69.941 0 0 1 0-2.798c0-.288-.08-.368-.364-.364h-6.277c-.284 0-.371.072-.367.364.018.927.018 1.86 0 2.798 0 .288.075.368.363.364 1.056-.012 2.091 0 3.127 0h-.016zm5.34-17.452c-.579 0-1.358-.227-1.682.06-.324.288-.092 1.128-.108 1.72-.016.59-.192 1.274.08 1.578.272.304 1.06.096 1.599.108.54.012 1.36.208 1.683-.084.324-.292.092-1.127.108-1.719.016-.591.192-1.267-.08-1.579-.272-.311-1.043-.084-1.6-.084z" fill="#C89A32"/>
        <path d="M84.986 87.505c-.418.021-.837.021-1.256 0-.423-.036-.507.116-.503.515v11.584a1.755 1.755 0 0 1-1.915 1.899h-22.08c-.356 0-.5-.052-.5-.464V71.04c0-.052 0-.104.02-.196.18.082.336.21.451.372 3.004 2.997 6.005 6 9.004 9.005a12.315 12.315 0 0 0 9.167 3.793h7.596c.01 1.173.016 2.336.016 3.49z" fill="#12907E"/>
        <path d="M56.98 61.296c0-.4.044-.84 0-1.255-.043-.416.092-.508.504-.508H77.806a3.499 3.499 0 0 0 3.666-3.673V25.054c0-.4-.108-.503-.508-.5h-7.996c-1.331 0-1.999-.683-2.019-1.998v-7.994c0-.4-.064-.52-.492-.516H53.574a3.483 3.483 0 0 0-3.622 3.598V30.97c0 .456-.108.604-.563.56-.4-.023-.8-.023-1.2 0-.472 0-.947-.028-1.42 0-.263 0-.331-.076-.331-.336 0-4.697-.056-9.397.036-14.094.068-3.525 3.198-6.523 6.725-6.547 6.484-.04 12.969 0 19.453 0a1.74 1.74 0 0 1 1.316.556l10.47 10.468c.353.351.544.833.528 1.331V56.18a6.944 6.944 0 0 1-6.88 6.855c-6.885.024-13.77 0-20.654 0-.352 0-.471-.08-.447-.444.035-.42 0-.86-.004-1.295zM78.846 21.06 74.5 16.717v4.109c0 .26.16.235.324.235h4.022z" fill="#FFF"/>
        <path d="M51.755 63.059c-.4 0-.84-.044-1.255 0-.416.044-.512-.092-.508-.504V44.312c0-.4-.096-.507-.504-.507-2.678.02-5.353 0-8.031 0-1.264 0-1.967-.7-1.967-1.95V33.86c0-.432-.068-.576-.548-.576H22.151c-2.18 0-3.674 1.491-3.678 3.666v25.457c0 .496-.12.668-.62.612a9.365 9.365 0 0 0-1.143 0 12.056 12.056 0 0 0-1.256 0c-.4.036-.503-.096-.503-.504V37.062c0-4.245 3.038-7.279 7.292-7.279h18.63a2.295 2.295 0 0 1 1.751.715c1.807 1.823 3.634 3.626 5.453 5.436 1.5 1.511 2.987 3.034 4.51 4.517.568.518.88 1.259.851 2.027-.024 6.063 0 12.127 0 18.19v.6c0 .472-.028.947 0 1.419 0 .264-.072.344-.335.336-.404.008-.876.032-1.348.036zm-4.397-22.764-4.342-4.34v4.092c0 .188.06.252.252.252 1.367-.004 2.742-.004 4.09-.004zM30.762 19.283v6.503c0 .476-.136.563-.571.547a35.168 35.168 0 0 0-2.515 0c-.312 0-.436-.04-.436-.4.016-4.407.016-8.814 0-13.222 0-.327.112-.4.4-.375.911 0 1.823.024 2.73 0 .332 0 .376.116.376.4.012 2.174.016 4.36.016 6.547zM84.982 9.758v3.933c0 .303-.072.4-.4.4-.927-.02-1.859 0-2.798 0-.26 0-.34-.065-.336-.332V5.673c0-.256.06-.344.328-.34.947 0 1.895.024 2.842 0 .332 0 .336.144.336.4.024 1.33.028 2.686.028 4.025zM55.25 3.59v3.114c0 .316-.093.4-.4.4-.912 0-1.823-.02-2.73 0-.317 0-.4-.092-.4-.4V.476c0-.315.091-.4.4-.4.91.02 1.82.02 2.73 0 .315 0 .4.093.4.4-.013 1.04 0 2.075 0 3.114zM16.77 22.808v-3.114c0-.271.052-.38.351-.371.928.02 1.86 0 2.799 0 .272 0 .372.052.372.355a493.777 493.777 0 0 0 0 6.284c0 .272-.052.38-.352.371a59.383 59.383 0 0 0-2.799 0c-.34 0-.371-.127-.367-.4.024-1.054-.004-2.09-.004-3.125zM41.257 24.595v1.419c0 .232-.056.315-.304.311-.965-.013-1.93-.013-2.895 0-.231 0-.315-.055-.311-.303.013-.965.013-1.93 0-2.894 0-.232.056-.316.303-.312.965.013 1.93.013 2.895 0 .232 0 .32.056.312.3-.012.491 0 .987 0 1.479zM37.783 17.576c.024-.576-.272-1.343.092-1.667.363-.324 1.075-.092 1.635-.076s1.343-.252 1.667.112c.324.364.092 1.075.076 1.635s.252 1.343-.108 1.667c-.36.323-1.072.088-1.635.076-.564-.012-1.348.251-1.667-.108-.32-.36-.06-1.076-.06-1.64zM16.798 14.014c.024-.555-.272-1.299.08-1.598.351-.3 1.039-.092 1.599-.076s1.387-.26 1.723.108c.336.367.096 1.107.084 1.686-.012.58.24 1.303-.104 1.6-.344.295-1.036.091-1.6.075-.563-.016-1.39.26-1.718-.108-.328-.367-.064-1.091-.064-1.687zM28.963 5.337h1.475c.268 0 .336.084.332.34v2.841c0 .268-.084.332-.34.328-.946-.013-1.893-.013-2.842 0-.272 0-.332-.084-.328-.34V5.666c0-.268.084-.34.34-.328.452.012.907 0 1.363 0zM71.021 5.289c.02-.556-.276-1.3.076-1.599.352-.3 1.036-.092 1.6-.08.563.012 1.387-.256 1.722.108.336.364.096 1.103.084 1.683-.012.58.24 1.303-.104 1.599-.343.295-1.035.092-1.579.08-.544-.012-1.391.255-1.723-.108-.332-.364-.076-1.104-.076-1.683zM65.744 5.285V6.76c0 .272-.084.332-.34.328h-2.842c-.272 0-.332-.084-.328-.34.013-.946.013-1.893 0-2.842 0-.268.084-.332.34-.328h2.842c.272 0 .34.084.328.34-.016.456 0 .903 0 1.367zM81.484 1.695c.052-.467-.248-1.199.112-1.526.36-.328 1.04-.076 1.599-.08.56-.004.983 0 1.475 0 .264 0 .34.072.336.335a84.18 84.18 0 0 0 0 2.842c0 .264-.072.34-.336.336a84.233 84.233 0 0 0-2.843 0c-.263 0-.343-.072-.335-.336.008-.5-.008-.99-.008-1.57z" fill="#FFF"/>
        <path d="M3.529 80.53c.183-.2.291-.316.4-.428 3.827-3.821 7.651-7.649 11.473-11.483a1.04 1.04 0 0 1 .8-.34h36.453c-.056.244-.228.336-.348.455-2.998 3.002-5.997 5.996-9 9.01a9.032 9.032 0 0 1-6.708 2.798c-10.84-.016-21.68-.016-32.519 0l-.551-.012zM61.282 68.299H83.703a1.2 1.2 0 0 1 .951.4c3.763 3.78 7.53 7.549 11.302 11.303.16.144.33.278.508.4a.772.772 0 0 1-.568.124h-18.73a8.28 8.28 0 0 1-5.997-2.33c-3.306-3.242-6.54-6.544-9.887-9.897z" fill="#C89A32"/>
        <path d="M62.242 33.312h4.797c.352 0 .464.084.452.448-.028.891-.02 1.783 0 2.674 0 .312-.084.4-.4.4h-9.719c-.304 0-.4-.072-.4-.4.022-.909.022-1.819 0-2.73 0-.308.084-.4.4-.4 1.631.02 3.25.012 4.87.008zM69.238 43.805h-4.797c-.36 0-.456-.1-.448-.452.024-.891.02-1.783 0-2.674 0-.316.096-.4.4-.4h9.719c.311 0 .4.088.4.4a66.586 66.586 0 0 0 0 2.73c0 .316-.097.4-.4.4-1.636-.008-3.255-.004-4.874-.004zM72.74 50.788h-3.11c-.304 0-.4-.076-.4-.4.021-.909.021-1.819 0-2.73 0-.308.084-.4.4-.4h6.22c.304 0 .4.076.4.4a58.264 58.264 0 0 0 0 2.73c0 .308-.084.4-.4.4h-3.11zM74.543 33.312h3.059c.312 0 .4.084.4.4a66.586 66.586 0 0 0 0 2.73c0 .312-.092.4-.4.4h-6.225c-.308 0-.4-.084-.4-.4.019-.909.019-1.819 0-2.73 0-.312.092-.4.4-.4 1.055.012 2.11 0 3.166 0zM67.547 26.321h3.058c.308 0 .4.08.4.4a58.265 58.265 0 0 0 0 2.73c0 .312-.088.4-.4.4h-6.22c-.308 0-.4-.08-.4-.4.021-.908.021-1.818 0-2.73 0-.312.088-.4.4-.4 1.051.008 2.107 0 3.162 0zM60.499 21.073h-3.11c-.305 0-.4-.076-.4-.4.02-.908.02-1.818 0-2.73 0-.307.08-.4.4-.4 2.073.014 4.146.014 6.22 0 .304 0 .4.077.4.4a58.265 58.265 0 0 0 0 2.73c0 .308-.084.4-.4.4-1.035-.012-2.075 0-3.11 0zM77.986 28.024v1.42c0 .263-.036.399-.348.399-.944-.02-1.891 0-2.835 0-.28 0-.328-.104-.324-.348v-2.834c0-.28.104-.328.348-.324h2.835c.28 0 .332.104.324.348-.02.432 0 .888 0 1.34zM58.72 26.305c.603.064 1.37-.235 1.695.132.324.368.08 1.072.08 1.635 0 .564.2 1.315-.084 1.631-.284.316-1.092.108-1.667.108-.576 0-1.344.256-1.664-.108-.32-.364-.08-1.071-.08-1.635 0-.563-.2-1.31.084-1.635.284-.323 1.092-.052 1.636-.128zM29.071 52.55h6.5c.357 0 .46.092.449.448a45.87 45.87 0 0 0 0 2.674c0 .316-.096.4-.4.4H22.403c-.308 0-.4-.084-.4-.4 0-.891.028-1.783 0-2.674 0-.368.108-.448.456-.444 2.206.004 4.41-.004 6.612-.004zM27.272 36.798h4.798c.363 0 .451.104.443.452-.024.87 0 1.746 0 2.622 0 .303-.028.443-.4.443-3.24-.016-6.48-.016-9.718 0-.316 0-.4-.096-.4-.4 0-.91.02-1.818 0-2.73 0-.32.104-.4.4-.4 1.635.033 3.254.013 4.877.013zM34.308 45.555h4.75c.34 0 .472.064.46.44-.028.891-.02 1.783 0 2.674 0 .3-.068.4-.4.4h-9.719c-.296 0-.4-.06-.4-.4a55.9 55.9 0 0 0 0-2.674c0-.348.076-.46.444-.456 1.623.028 3.246.016 4.865.016zM27.192 63.043h-4.75c-.355 0-.46-.092-.447-.448a45.87 45.87 0 0 0 0-2.674c0-.316.092-.4.4-.4h9.719c.307 0 .4.084.4.4a66.586 66.586 0 0 0 0 2.73c0 .316-.093.4-.4.4-1.632-.016-3.267-.008-4.922-.008zM43.004 52.55h3.11c.304 0 .4.08.4.4a58.264 58.264 0 0 0 0 2.73c0 .308-.084.4-.4.4h-6.22c-.304 0-.4-.076-.4-.4.021-.909.021-1.819 0-2.73 0-.308.084-.4.4-.4 1.035.012 2.09 0 3.11 0zM39.478 63.043h-3.11c-.289 0-.372-.076-.364-.364.018-.927.018-1.86 0-2.798 0-.288.083-.364.367-.364h6.277c.288 0 .372.076.364.364a69.94 69.94 0 0 0 0 2.798c0 .288-.084.368-.368.364-1.06-.012-2.11 0-3.166 0zM44.803 45.591c.556.024 1.3-.28 1.6.08.299.36.095 1.036.079 1.58-.016.543.26 1.386-.108 1.718-.368.332-1.103.096-1.683.084-.58-.012-1.3.24-1.6-.108-.299-.348-.095-1.035-.08-1.579.017-.543-.263-1.387.109-1.719.372-.331 1.103-.056 1.683-.056z" fill="#FFF"/>
        <path d="M78.845 21.061H74.82c-.164 0-.324.024-.324-.235v-4.11l4.35 4.345z" fill="#C89A32"/>
        <path d="M47.358 40.295h-4.094c-.188 0-.252-.068-.252-.252V35.95l4.346 4.345z" fill="#12907E"/>
    </g>
</svg>
