<svg width="94" height="94" viewBox="0 0 94 94" xmlns="http://www.w3.org/2000/svg" xmlns:xlink="http://www.w3.org/1999/xlink">
    <defs>
        <path id="ig70yskzra" d="M0 0h94v94H0z"/>
    </defs>
    <g fill="none" fill-rule="evenodd">
        <g>
            <mask id="u3jfj3308b" fill="#fff">
                <use xlink:href="#ig70yskzra"/>
            </mask>
            <path d="M8.217 89.466 4.566 85.82c-.445 1.166-.903 2.403-1.393 3.628-.187.466-.153.868.2 1.213.347.34.748.386 1.215.198 1.224-.49 2.46-.948 3.63-1.394zm33.502-1.453c2.605 3.969 8.436 3.925 10.472 0H41.719zm5.233-3.089c2.428 0 4.855.005 7.282-.002 1.129-.004 1.812-.557 1.84-1.46.029-.939-.68-1.545-1.848-1.546a6920.29 6920.29 0 0 0-14.467 0c-1.14 0-1.812.546-1.84 1.458-.03.942.677 1.544 1.847 1.548 2.395.007 4.79.002 7.186.002zm.037-9.076c-2.396 0-4.791-.004-7.187.001-1.19.003-1.888.572-1.883 1.51.006.94.7 1.497 1.898 1.498 4.791.003 9.582.004 14.373 0 1.19-.002 1.89-.575 1.884-1.512-.006-.938-.701-1.493-1.899-1.496-2.395-.005-4.79-.001-7.186-.001zm37.346-52.955c-.321-.349-.5-.558-.695-.753-3.522-3.526-7.045-7.051-10.57-10.574-.579-.577-1.142-1.552-1.77-1.6-.726-.057-1.194 1.067-1.86 1.575-.603.46-.456.762.023 1.236 3.633 3.593 7.236 7.216 10.848 10.83 1.551 1.552 1.546 1.547 3.093.019.266-.263.59-.467.931-.733zm-17.628-8.529c-.142.121-.264.212-.37.318-2.434 2.432-4.858 4.873-7.306 7.292-.451.446-.11.538.208.7 1.976 1.007 3.816 2.222 5.474 3.694.372.33.56.214.837-.065a993.765 993.765 0 0 1 6.161-6.159c.322-.318.33-.512.003-.832-1.554-1.526-3.085-3.075-4.627-4.614-.107-.108-.228-.201-.38-.334zm5.012 20.887c.113-.101.255-.217.384-.346 2.39-2.39 4.77-4.788 7.176-7.161.381-.376.292-.578-.039-.902a340.16 340.16 0 0 1-4.487-4.49c-.322-.328-.525-.427-.902-.042a650.672 650.672 0 0 1-6.159 6.168c-.299.297-.347.489-.039.84a26.398 26.398 0 0 1 3.686 5.485c.08.157.1.379.38.448zm1.015 39.056c4.244.016 7.688-3.504 7.595-7.764-.09-4.19-3.686-7.567-7.886-7.35-.886.045-1.871.016-2.517.82-1.247 1.554-2.612 2.997-4.04 4.383-.308.3-.47.625-.554 1.052-.889 4.49 2.737 8.841 7.402 8.859zM34.77 72.17c-.12-.22-.215-.417-.33-.602-1.134-1.836-2.58-3.415-4.078-4.954-.42-.432-.62-.164-.899.116-3.364 3.37-6.726 6.744-10.109 10.095-.402.4-.455.62-.018 1.04 1.5 1.443 2.963 2.924 4.419 4.412.347.356.56.456.968.043 3.193-3.23 6.412-6.434 9.62-9.648.152-.153.28-.329.427-.502zm-25.148.522c-1.208 3.132-2.436 6.325-3.677 9.512-.16.413.138.573.348.784 1.422 1.431 2.9 2.813 4.257 4.303.674.74 1.23.866 2.16.482 2.87-1.186 5.784-2.262 8.628-3.36L9.622 72.692zm18.11-8.608c-.152-.171-.268-.314-.396-.444-1.533-1.55-3.024-3.137-4.22-4.971-.315-.485-.508-.248-.77.014-3.546 3.553-7.09 7.107-10.651 10.644-.365.362-.332.562.015.9a246.577 246.577 0 0 1 4.484 4.49c.377.387.59.379.969-.002 3.378-3.408 6.776-6.795 10.168-10.19.129-.129.246-.27.4-.441zM81.744 3.019c-.45.045-.858.081-1.264.128-2.898.333-4.901 2.125-6.78 4.138-.356.382-.063.544.15.757 4.035 4.04 8.076 8.073 12.101 12.12.34.343.557.404.901.018.525-.588 1.132-1.102 1.649-1.695 2.586-2.968 3.216-6.34 1.642-9.931-1.58-3.601-4.537-5.34-8.4-5.535zM62.209 68.13c-1.73 1.849-3.045 3.784-3.957 5.994-.15.365.012.596.178.865.494.8.891 1.706.646 2.6-.267.977.198 1.466.8 1.996.166.146.338.294.467.47.395.538.701.538 1.266.093 3.288-2.592 8.24-.966 9.42 3.028.171.58-.08 1.421.468 1.696.506.253 1.236.06 1.868.063.063 0 .128-.01.189.001.561.098.705-.122.773-.698.505-4.297 5.146-6.676 8.88-4.613.509.282.9 1.049 1.455.854.539-.188.898-.854 1.374-1.266.497-.43.613-.717.123-1.342-2.56-3.267-.964-8.152 2.98-9.379.6-.187 1.48.11 1.76-.512.248-.553.025-1.306.068-1.966.038-.569-.097-.767-.737-.844-4.259-.514-6.612-5.092-4.605-8.822.287-.534 1.068-.947.862-1.54-.186-.538-.836-.915-1.28-1.363-.045-.045-.098-.084-.133-.136-.329-.473-.597-.413-1.05-.056-3.332 2.625-7.99 1.245-9.44-2.752-.088-.243-.014-.646-.46-.7-.24 2.196-.845 4.266-1.746 6.282 6.837.079 10.827 5.246 10.987 10.255.18 5.62-3.865 10.32-9.53 10.956-4.775.536-10.325-2.404-11.626-9.164zM48.297 54.605c2.462 0 4.924.003 7.386-.001 1.21-.002 1.897-.54 1.918-1.482.022-.975-.689-1.546-1.947-1.547-3.819-.004-7.638.006-11.457-.004-2.832-.007-4.76-1.929-4.78-4.742-.008-1.231-.015-2.463.007-3.694.007-.439-.031-.676-.588-.673-5.018.022-10.037.016-15.055.006-.41 0-.596.086-.676.547-1.035 5.987.059 11.41 4.148 16.074 1.584 1.807 3.333 3.45 5.029 5.146 2.42 2.422 4.647 4.984 6.022 8.175.122.284.262.431.623.425 1.988-.032 3.976-.037 5.964-.023.432.002.605-.087.6-.566-.025-2.305.004-4.61-.02-6.915-.01-1.047-.604-1.599-1.676-1.622-.852-.018-1.705 0-2.557-.004-2.807-.012-4.863-1.952-4.851-4.577.011-2.579 2.062-4.513 4.809-4.521 2.367-.008 4.734-.002 7.101-.002zm1.374-31.675c.307 1.306.454 2.5.31 3.7-.065.543.063.661.602.712 4.207.397 7.183 3.785 7.014 7.932-.163 4.023-3.513 7.167-7.685 7.198-2.147.015-4.295.057-6.439-.023-.914-.034-1.102.281-1.038 1.096.066.848.014 1.704.014 2.557 0 2.087.344 2.437 2.39 2.437 3.725 0 7.45-.012 11.175.006 1.953.009 3.395.926 4.215 2.685 1.392 2.987-.808 6.378-4.16 6.4-4.923.033-9.848.007-14.772.011-1.195.001-1.88.57-1.873 1.525.008.947.696 1.496 1.895 1.504.79.005 1.579-.002 2.368.002 2.892.013 4.812 1.916 4.824 4.794.01 2.21.027 4.421-.014 6.63-.01.605.171.73.74.72a145.89 145.89 0 0 1 5.776.02c.467.01.575-.219.724-.553.906-2.033 2.162-3.838 3.61-5.52 2.042-2.375 4.393-4.445 6.542-6.714 3.171-3.346 5.232-7.223 5.317-11.894.185-10.1-4.252-17.623-13.007-22.589-2.597-1.472-5.433-2.291-8.528-2.636zM29.482 39.44c6.851 0 13.703.013 20.554-.007a4.553 4.553 0 0 0 4.517-4.035c.261-2.274-1.235-4.37-3.516-4.926-2.185-.533-4.427.69-5.272 2.819-.21.527.009 1.32-.553 1.552-.513.212-1.181.048-1.781.05-.063 0-.128-.01-.19 0-.67.116-.874-.14-.77-.818.335-2.198 1.269-4.086 3.164-5.262 1.062-.659 1.3-1.5 1.35-2.567.228-4.785-3.208-8.832-8.067-9.501-4.388-.605-8.777 2.482-9.858 6.921-.134.55-.11.873.542 1.135 2.057.824 3.238 2.414 3.685 4.578.14.675.104 1.105-.768.974a4.874 4.874 0 0 0-1.229-.002c-.64.068-.967-.06-1.123-.809-.271-1.308-1.44-2.167-2.727-2.228-1.259-.059-2.626.636-2.885 1.856-.269 1.27-.986 1.25-1.91 1.176-.251-.02-.51-.038-.757.004-.678.113-.714-.256-.627-.765.405-2.37 1.7-4.032 3.945-4.909.415-.161.672-.306.753-.81.555-3.453 2.316-6.161 5.204-8.112.514-.347.57-.57.243-1.084-3.025-4.76-9.127-6.788-14.456-4.781-5.285 1.99-8.545 7.54-7.745 13.04.145.995.458 1.4 1.495 1.55 3.6.523 6.606 3.49 7.3 7.035.364 1.862.364 1.862-1.533 1.862-.157 0-.319-.022-.472.004-.616.102-.815-.099-.901-.769-.328-2.56-2.15-4.548-4.543-5.115-2.45-.582-4.911.294-6.35 2.332-1.392 1.971-1.59 4.106-.5 6.259 1.105 2.186 2.969 3.33 5.417 3.342 6.788.032 13.576.011 20.364.01zm29.685 43.704c-.13 2.248-1.082 3.753-3.057 4.522-.336.13-.46.363-.596.66C53.844 91.97 51.004 94 46.993 94c-4.012-.001-6.853-2.033-8.513-5.682-.156-.345-.35-.543-.69-.693-2.866-1.273-3.754-4.19-2.083-6.806.145-.227.396-.385.121-.723-.812-.998-1.051-2.18-.938-3.474-.392.086-.546.381-.755.59a1818 1818 0 0 0-8.438 8.446 3.841 3.841 0 0 1-1.408.903c-6.203 2.37-12.393 4.771-18.6 7.128-2.952 1.12-5.854-.953-5.682-3.997.031-.545.207-1.05.399-1.55 2.383-6.2 4.776-12.395 7.151-18.598.175-.458.433-.82.774-1.16 4.136-4.128 8.256-8.272 12.407-12.384.454-.45.522-.792.295-1.383-1.419-3.686-1.592-7.504-1.042-11.371.09-.633.017-.792-.64-.786-3.285.032-6.569.019-9.853.014-4.663-.007-8.447-2.94-9.297-7.2-.898-4.5 1.315-8.545 5.738-10.407.477-.201.486-.396.404-.84a15.16 15.16 0 0 1 9.483-16.962c6.831-2.62 14.52.047 18.338 6.38.274.454.495.677 1.093.544 4.986-1.103 9.878.852 12.692 5.085.38.572.806.779 1.45.813a20.53 20.53 0 0 1 5.286.984c.655.214 1.057.119 1.554-.382A3255.023 3255.023 0 0 1 73.046 3.66C77.581-.844 84.53-1.227 89.404 2.71c5.715 4.616 6.178 12.953.954 18.236A2264.821 2264.821 0 0 1 73.6 37.69c-.583.578-.692 1.054-.445 1.802.566 1.713.88 3.486.973 5.29.029.546.185.75.779.746.796-.006 1.873-.395 2.32.19.381.5.078 1.52.091 2.31.007.408-.016.83.075 1.224.494 2.153 3.082 3.02 4.78 1.588.698-.589 1.337-1.253 1.957-1.925.348-.376.547-.321.88.018 1.838 1.87 3.69 3.726 5.562 5.561.353.347.365.547.002.88a29.21 29.21 0 0 0-1.807 1.81c-.87.952-1.087 2.052-.544 3.238.52 1.135 1.429 1.737 2.687 1.761.852.017 1.706.025 2.558-.005.415-.014.534.116.532.532-.018 2.685-.018 5.37 0 8.055.002.416-.116.546-.532.532a46.348 46.348 0 0 0-2.558-.005c-1.254.025-2.175.608-2.686 1.755-.529 1.185-.332 2.29.543 3.241.598.651 1.23 1.273 1.872 1.88.299.281.292.451-.003.742a414.564 414.564 0 0 0-5.69 5.7c-.37.38-.54.223-.81-.056a54.52 54.52 0 0 0-1.742-1.742c-.963-.914-2.078-1.176-3.306-.618-1.173.533-1.768 1.477-1.772 2.776-.002.822-.019 1.643.007 2.464.013.398-.086.548-.518.544a477.275 477.275 0 0 0-8.053.003c-.51.005-.552-.214-.54-.619.023-.82.018-1.642.003-2.463-.023-1.255-.602-2.18-1.744-2.696-1.18-.533-2.286-.346-3.241.53a32.68 32.68 0 0 0-1.812 1.806c-.318.342-.54.425-.878.019-.38-.457-.828-.859-1.373-1.414z" fill="#FFF" mask="url(#u3jfj3308b)"/>
        </g>
        <path d="M29.482 39.44c-6.788 0-13.576.02-20.364-.011-2.448-.012-4.312-1.156-5.418-3.342-1.089-2.153-.89-4.287.501-6.26 1.439-2.037 3.9-2.913 6.35-2.332 2.393.568 4.215 2.557 4.543 5.116.086.67.285.87.9.769.154-.026.316-.004.473-.004 1.897 0 1.897 0 1.533-1.862-.694-3.545-3.7-6.512-7.3-7.035-1.037-.15-1.35-.555-1.495-1.55-.8-5.5 2.46-11.05 7.745-13.04 5.33-2.007 11.431.021 14.456 4.78.327.514.272.738-.243 1.085-2.888 1.95-4.65 4.659-5.204 8.112-.081.504-.339.649-.753.81-2.246.877-3.54 2.54-3.946 4.91-.087.508-.05.877.629.763.245-.04.505-.023.756-.003.924.075 1.641.094 1.91-1.176.259-1.22 1.626-1.915 2.885-1.856 1.287.06 2.456.92 2.727 2.228.156.75.484.877 1.123.81a4.874 4.874 0 0 1 1.229.001c.872.131.907-.299.768-.974-.447-2.164-1.628-3.754-3.685-4.578-.653-.262-.676-.584-.542-1.135 1.081-4.44 5.47-7.526 9.858-6.921 4.86.669 8.295 4.716 8.068 9.5-.05 1.067-.29 1.91-1.351 2.568-1.895 1.176-2.83 3.064-3.164 5.262-.104.678.1.934.77.819.062-.01.127-.001.19-.002.6-.001 1.268.163 1.781-.049.562-.231.344-1.025.553-1.552.845-2.128 3.087-3.352 5.272-2.82 2.281.557 3.777 2.653 3.516 4.927a4.553 4.553 0 0 1-4.517 4.035c-6.851.02-13.703.007-20.554.007M62.208 68.13c1.302 6.76 6.853 9.7 11.627 9.164 5.665-.636 9.71-5.335 9.53-10.956-.16-5.009-4.15-10.176-10.987-10.254.9-2.017 1.506-4.087 1.746-6.282.446.053.372.456.46.699 1.45 3.997 6.108 5.377 9.44 2.752.453-.357.721-.417 1.05.057.035.05.088.09.132.135.446.448 1.095.825 1.281 1.363.206.593-.575 1.006-.862 1.54-2.008 3.73.346 8.308 4.605 8.822.64.077.775.275.737.844-.043.66.18 1.413-.069 1.966-.28.621-1.159.325-1.76.512-3.943 1.227-5.538 6.112-2.98 9.379.49.625.375.912-.122 1.342-.476.412-.835 1.078-1.374 1.266-.555.194-.946-.572-1.455-.854-3.734-2.063-8.375.316-8.88 4.613-.068.576-.212.796-.773.698-.062-.01-.126 0-.19-.001-.63-.003-1.36.19-1.867-.064-.548-.274-.297-1.115-.468-1.695-1.18-3.994-6.131-5.62-9.42-3.028-.565.445-.87.445-1.266-.093-.13-.176-.3-.324-.466-.47-.603-.53-1.068-1.02-.8-1.996.244-.894-.153-1.8-.647-2.6-.166-.27-.329-.5-.178-.865.912-2.21 2.227-4.145 3.956-5.994M81.745 3.019c3.862.195 6.82 1.934 8.398 5.535 1.575 3.591.945 6.963-1.641 9.93-.517.594-1.124 1.108-1.649 1.696-.344.386-.56.325-.9-.017-4.026-4.048-8.067-8.082-12.101-12.12-.214-.214-.507-.376-.15-.758 1.878-2.013 3.881-3.805 6.78-4.138.405-.047.813-.083 1.263-.128" fill="#C89A32"/>
        <path d="M27.33 64.526c-1.244 1.246-2.49 2.491-3.736 3.737a2107.454 2107.454 0 0 0-6.431 6.452c-.378.381-.592.389-.969.001a248.116 248.116 0 0 0-4.484-4.488c-.347-.34-.38-.54-.016-.901 3.562-3.537 7.106-7.091 10.651-10.644.263-.262.456-.499.772-.014 1.195 1.834 2.686 3.421 4.219 4.971.128.13.243.273.395.443-.154.172-.271.313-.4.443z" fill="#12907E"/>
        <path d="M34.77 72.17c-.146.173-.275.35-.427.502-3.208 3.214-6.427 6.419-9.62 9.648-.408.413-.62.313-.968-.043a204.395 204.395 0 0 0-4.419-4.411c-.437-.421-.384-.642.018-1.04 3.383-3.352 6.745-6.726 10.11-10.096.279-.28.477-.548.898-.116 1.498 1.54 2.944 3.118 4.079 4.954.114.185.21.382.33.602M71.72 35.251c-.281-.07-.3-.291-.38-.449a26.397 26.397 0 0 0-3.687-5.485c-.308-.35-.26-.542.04-.839a650.652 650.652 0 0 0 6.157-6.168c.378-.385.58-.286.903.042a339.187 339.187 0 0 0 4.487 4.49c.33.324.42.525.039.902-2.406 2.373-4.786 4.772-7.176 7.16-.13.13-.271.246-.384.347" fill="#C89A32"/>
        <path d="M66.707 14.364c.152.132.273.226.38.334 1.542 1.539 3.073 3.088 4.627 4.614.327.32.32.514-.003.832a989.372 989.372 0 0 0-6.161 6.16c-.277.278-.465.394-.837.064-1.658-1.472-3.498-2.687-5.474-3.694-.319-.162-.66-.254-.208-.7 2.448-2.419 4.872-4.86 7.306-7.292.106-.106.228-.197.37-.318M84.335 22.893c-.342.266-.665.47-.93.733-1.548 1.528-1.543 1.533-3.093-.019-3.613-3.614-7.216-7.237-10.849-10.83-.48-.474-.625-.776-.023-1.236.666-.508 1.134-1.632 1.861-1.575.628.048 1.19 1.023 1.769 1.6 3.525 3.523 7.048 7.048 10.57 10.574.194.195.374.404.695.753" fill="#12907E"/>
        <path d="M46.989 75.848c2.395 0 4.79-.004 7.186.001 1.197.003 1.893.558 1.899 1.496.006.938-.695 1.51-1.884 1.511-4.79.005-9.582.004-14.373 0-1.199 0-1.892-.557-1.898-1.496-.005-.939.693-1.508 1.883-1.51 2.396-.006 4.791-.002 7.187-.002M46.952 84.924c-2.395 0-4.79.005-7.186-.002-1.17-.004-1.876-.606-1.847-1.548.028-.912.7-1.457 1.84-1.458 4.822-.005 9.645-.005 14.467 0 1.168 0 1.877.607 1.848 1.546-.028.903-.711 1.456-1.84 1.46-2.427.007-4.855.002-7.282.002M41.719 88.013H52.19c-2.036 3.925-7.867 3.969-10.472 0" fill="#C89A32"/>
        <path d="M72.787 65.219a1.524 1.524 0 0 0-1.538 1.474 1.529 1.529 0 0 0 1.45 1.563 1.53 1.53 0 0 0 1.586-1.523 1.525 1.525 0 0 0-1.498-1.514m4.536 1.514a4.572 4.572 0 0 1-4.577 4.563c-2.513-.008-4.554-2.08-4.536-4.603.017-2.474 2.053-4.503 4.53-4.514a4.568 4.568 0 0 1 4.583 4.554" fill="#12907E"/>
        <path d="M72.787 65.219c.824.01 1.495.69 1.498 1.514a1.53 1.53 0 0 1-1.586 1.523 1.529 1.529 0 0 1-1.45-1.563 1.524 1.524 0 0 1 1.538-1.474" fill="#E4E7EB"/>
    </g>
</svg>
