<svg width="130" height="130" viewBox="0 0 130 130" xmlns="http://www.w3.org/2000/svg">
    <g fill="none" fill-rule="evenodd">
        <rect fill="#EDD7AB" opacity=".215" width="130" height="130" rx="50"/>
        <path d="M65.92 81.669c-1.377.002-2.544 1.17-2.533 2.535.01 1.358 1.21 2.553 2.547 2.537 1.366-.017 2.518-1.185 2.52-2.555.001-1.378-1.148-2.52-2.534-2.517m23.452-44.155c-1.078 1.416-2.06 2.747-3.091 4.04-.44.552-1.11.627-1.783.608-8.228-.233-16.458-.064-24.687-.099-7.264-.031-14.53-.007-21.794-.006-1.243 0-1.523.263-1.524 1.518-.006 9.18-.004 18.359-.004 27.538 0 1.984-.007 3.968 0 5.951.004 1.184.28 1.454 1.449 1.454 18.645 0 37.29 0 55.936-.002 1.232 0 1.497-.264 1.498-1.537.005-4.874.001-9.75.005-14.624.001-1.35.021-2.7.02-4.05 0-.482.12-.924.39-1.312 1.28-1.828 2.569-3.65 3.857-5.472.031-.044.094-.065.143-.098.18.137.095.32.095.47.006 10.89.01 21.779.004 32.668-.002 3.004-2.285 5.29-5.271 5.292-7.14.004-14.278.008-21.417-.012-.564-.001-.73.127-.645.7.317 2.13 1.579 3.474 3.464 4.316.714.319 1.48.455 2.242.603.907.177 1.198.538 1.224 1.473.004.169 0 .338-.002.507-.02 1.17-.349 1.5-1.513 1.505-4.723.02-9.446.079-14.168.045-3.295-.024-6.59-.025-9.884-.032-1.202-.003-1.52-.336-1.538-1.55-.02-1.43.17-1.67 1.574-2.063.767-.215 1.531-.44 2.267-.752 1.853-.787 2.847-2.2 3.103-4.19.062-.483-.09-.559-.52-.557-3.36.015-6.719.009-10.078.009H37.448c-3.281-.003-5.445-2.172-5.446-5.48C32 70.7 32 57.025 32.001 43.35c0-3.698 2.1-5.832 5.773-5.834 9.91-.006 19.821 0 29.732 0l20.976-.003h.89" fill="#12907E"/>
        <path d="M65.623 46.625H81.75c.907.001.94.032.47.776-1.243 1.965-2.021 4.119-2.557 6.362-.19.794-.613 1.236-1.355 1.486a9.433 9.433 0 0 1-3.03.488c-8.673.005-17.345.004-26.017 0-1.056 0-1.326-.213-1.397-1.324-.143-2.25-.121-4.505-.004-6.758.03-.573.335-.888.887-.97a4.25 4.25 0 0 1 .624-.058c5.417-.003 10.835-.003 16.252-.002M59.11 66.046c0 2.152.003 4.304-.001 6.456-.002 1.068-.318 1.43-1.38 1.438-2.834.02-5.668.021-8.502-.002-1.069-.01-1.37-.353-1.37-1.436a4127.5 4127.5 0 0 1 .003-13.1c.002-1.016.346-1.372 1.373-1.379 2.834-.017 5.668-.016 8.503 0 1.04.005 1.372.377 1.373 1.44.003 2.194.001 4.388.001 6.583" fill="#C89A32"/>
        <path d="M74.613 73.479c-.944 0-1.804-.196-2.646-.458-.537-.167-.65-.558-.328-1.035.116-.17.275-.319.437-.448 1.602-1.28 2.347-2.961 2.415-4.998.103-3.096 1.336-5.62 3.868-7.445.99-.713 2.13-1.1 3.32-1.283.502-.078.653-.28.708-.742.25-2.106 1.023-4.029 2.085-5.847.22-.375.348-.52.63-.024 1.228 2.165 3.072 3.537 5.476 4.123.544.132.417.29.144.582-1.447 1.546-3.022 2.926-4.926 3.88-.385.193-.56.366-.393.86.376 1.115.285 2.267-.1 3.356-1.611 4.564-4.613 7.752-9.25 9.277-.199.065-.409.1-.616.127-.29.038-.584.054-.824.075" fill="#12907E"/>
        <path d="M104 32.549c-.068.608-.157 1.207-.367 1.79-1.467 4.07-3.536 7.83-5.846 11.462-1.39 2.186-2.837 4.335-4.234 6.516-.383.597-.828.73-1.492.536-2.338-.682-4.08-2.097-5.311-4.19-.235-.399-.227-.722.053-1.097 3.393-4.566 6.856-9.072 10.882-13.107 1.239-1.241 2.546-2.393 4.11-3.211 1.19-.622 2.18-.031 2.205 1.301" fill="#C89A32"/>
        <path d="M67.864 58.016c1.676 0 3.352-.003 5.029.003.18 0 .415-.093.529.071.129.187-.083.35-.178.495-1.305 2.01-.69 1.646-2.938 1.678-2.618.038-5.238.022-7.857.025-.868.001-.978-.114-.984-.973-.01-1.24.038-1.293 1.307-1.297 1.697-.007 3.394-.002 5.092-.002M66.585 62.575c1.404 0 2.81.01 4.214-.005.419-.005.648.085.528.572-.065.263-.063.542-.104.812-.132.88-.134.879-1.052.88l-7.86.006c-.704 0-.898-.184-.918-.883-.006-.21.008-.42.013-.631.014-.55.296-.764.84-.757 1.446.02 2.892.007 4.339.006M66.458 67.114c1.426.001 2.854.023 4.28-.01.526-.013.6.224.545.649-.126.976-.837 1.646-1.835 1.653-2.434.016-4.868 0-7.302.013-.528.003-.787-.213-.768-.749.002-.042-.002-.084-.003-.126-.035-1.38.008-1.428 1.369-1.43 1.238-.002 2.476 0 3.714 0M65.261 73.957c-1.007 0-2.015.005-3.023-.002-.674-.005-.836-.177-.86-.87a12.307 12.307 0 0 1-.007-.379c-.004-.871.107-1.02.953-1.028 1.932-.019 3.863-.002 5.795-.018.314-.002.44.114.51.407.458 1.89.463 1.888-1.478 1.89h-1.89" fill="#12907E"/>
    </g>
</svg>
