<svg width="130" height="130" viewBox="0 0 130 130" xmlns="http://www.w3.org/2000/svg">
    <g fill="none" fill-rule="evenodd">
        <rect fill="#EDD7AB" opacity=".215" width="130" height="130" rx="50"/>
        <path d="m65.131 87.833.133.005c1.33.016 2.523-1.17 2.533-2.517.01-1.353-1.15-2.512-2.518-2.515-.094 0-.187.005-.279.015l.001-3.142h28.096c1.161 0 1.437-.267 1.44-1.441.008-1.968 0-3.936 0-5.904 0-9.107.002-18.214-.003-27.321-.001-1.246-.28-1.506-1.515-1.506-7.223 0-14.445-.025-21.667.006-2.117.009-4.234.004-6.351-.003v-4.507c9.419 0 18.839-.006 28.258 0 3.653.002 5.74 2.119 5.74 5.788 0 13.566.002 27.133-.001 40.7-.001 3.282-2.152 5.434-5.414 5.436-3.737.002-7.473 0-11.21 0-3.34 0-6.68.007-10.02-.008-.427-.002-.577.073-.516.552.254 1.975 1.243 3.376 3.085 4.157.731.31 1.491.533 2.253.746 1.397.39 1.586.629 1.566 2.047-.018 1.204-.335 1.535-1.53 1.538-3.275.007-6.55.007-9.826.031-.795.006-1.59.009-2.386.01v-6.09V100c-.796-.001-1.59-.004-2.386-.01-3.276-.024-6.551-.024-9.827-.031-1.194-.003-1.511-.334-1.529-1.538-.02-1.418.17-1.656 1.566-2.047.762-.213 1.522-.436 2.253-.746 1.842-.781 2.83-2.182 3.085-4.157.061-.48-.089-.554-.517-.552-3.34.015-6.68.008-10.02.008-3.736 0-7.472.002-11.209 0-3.262-.002-5.413-2.154-5.414-5.436C31 71.924 31 58.357 31.001 44.79c0-3.67 2.087-5.786 5.74-5.789 9.42-.005 18.84 0 28.259 0v4.508c-2.118.007-4.235.012-6.352.003-7.222-.03-14.444-.007-21.667-.006-1.235 0-1.514.26-1.515 1.506-.005 9.107-.003 18.214-.003 27.32 0 1.969-.008 3.937 0 5.905.003 1.174.279 1.442 1.44 1.442h28.096v3.141a2.494 2.494 0 0 0-.278-.015c-1.369.003-2.529 1.162-2.518 2.515.01 1.348 1.204 2.533 2.533 2.517l.133-.005.131-.013.131.013z" fill="#12907E"/>
        <path d="m60.191 70.991-12.33-6.704c-.797-.464-1.196-1.18-1.196-2.15 0-1.012.42-1.729 1.259-2.15l12.267-6.768v2.467c0 .168-.063.39-.189.664a1.214 1.214 0 0 1-.566.6l-8.744 4.807c-.336.253-.336.506 0 .76l9.5 5.122v3.352zm6.983-19.796h2.454l-6.103 20.998c-.167.548-.545.822-1.132.822H60.82l6.354-21.82zm2.894 2.024 12.268 6.767c.88.464 1.32 1.181 1.32 2.15 0 .97-.44 1.666-1.32 2.088L70.068 70.99v-2.466c0-.127.053-.338.157-.633.105-.295.283-.506.535-.632l8.808-4.744c.335-.253.335-.506 0-.759l-9.5-5.186V53.22z" fill="#C89A32" fill-rule="nonzero"/>
    </g>
</svg>
