<svg width="130" height="130" viewBox="0 0 130 130" xmlns="http://www.w3.org/2000/svg">
    <g fill="none" fill-rule="evenodd">
        <rect fill="#EDD7AB" opacity=".215" width="130" height="130" rx="50"/>
        <path d="M84.738 75.913c0-.629-.203-1.365.056-1.855.274-.52 1.117-.366 1.702-.543 5.465-1.656 9.298-6.595 9.451-12.217.156-5.73-3.333-10.797-8.806-12.725-1.049-.37-1.583-.995-1.768-2.115-1.088-6.605-6.79-10.955-13.449-10.284-1.769.179-3.437.75-4.922 1.738-1.03.686-1.936.68-3 .024-7.497-4.62-17.081-.13-18.428 8.622-.158 1.028-.664 1.628-1.64 1.967-5.568 1.93-9.146 7.122-8.911 12.874.238 5.836 4.187 10.721 9.88 12.224 1.342.355 1.342.355 1.341 1.796 0 .629-.036 1.26.011 1.885.044.577-.167.707-.703.62-1.94-.31-3.809-.861-5.513-1.843-6.17-3.552-9.373-8.926-9.011-16.06.35-6.913 3.923-11.86 10.176-14.812.357-.168.542-.344.643-.754 1.781-7.216 8.028-12.26 15.428-12.45 2.693-.069 5.255.531 7.659 1.755.378.192.658.228 1.057.027 9.361-4.72 20.49.361 23.091 10.55.132.516.383.744.835.944 6.946 3.071 10.936 10.355 9.929 18.089-.956 7.333-6.975 13.445-14.302 14.54-.586.087-.927.03-.832-.694.057-.427.01-.868.01-1.303h.016z" fill="#12907E"/>
        <path d="M77.574 59.828c.856.017 1.511-.621 1.521-1.48.01-.83-.6-1.482-1.416-1.516a1.476 1.476 0 0 0-1.562 1.446 1.476 1.476 0 0 0 1.457 1.55m-7.033 0c.84.011 1.535-.663 1.537-1.49a1.52 1.52 0 0 0-1.524-1.51 1.484 1.484 0 0 0-1.481 1.462c-.018.863.618 1.528 1.468 1.539m-7.052-.001a1.502 1.502 0 0 0 1.541-1.482 1.517 1.517 0 0 0-1.51-1.519 1.504 1.504 0 0 0-1.503 1.45 1.505 1.505 0 0 0 1.472 1.551M65.48 53h15.448c1.475.001 2.104.628 2.11 2.118.009 2.15.012 4.3.001 6.451-.007 1.477-.65 2.098-2.136 2.098H50.077c-1.518 0-2.144-.624-2.149-2.159a865.77 865.77 0 0 1 0-6.306c.007-1.623.604-2.202 2.246-2.202h15.304M79.094 82.007c.015-.858-.628-1.532-1.47-1.541a1.487 1.487 0 0 0-1.507 1.508c.001.82.632 1.477 1.44 1.5a1.467 1.467 0 0 0 1.537-1.467m-8.497 1.462a1.504 1.504 0 0 0 1.474-1.546c-.031-.809-.701-1.461-1.5-1.461-.842 0-1.5.67-1.496 1.523.004.858.66 1.497 1.522 1.484m-7.068.005a1.51 1.51 0 0 0 1.5-1.528 1.528 1.528 0 0 0-1.48-1.485 1.516 1.516 0 0 0-1.53 1.501 1.494 1.494 0 0 0 1.51 1.512m1.957 3.835H50.109c-1.561 0-2.176-.616-2.18-2.2a1135.25 1135.25 0 0 1 0-6.234c.003-1.626.611-2.235 2.21-2.235H80.82c1.618 0 2.214.595 2.218 2.23.004 2.055.004 4.109 0 6.162-.002 1.684-.59 2.277-2.248 2.277H65.486M68.949 70.137a1.51 1.51 0 0 0-1.536-1.493 1.53 1.53 0 0 0-1.475 1.49 1.531 1.531 0 0 0 1.507 1.534c.827.001 1.511-.694 1.504-1.53m-17.078-.015a1.498 1.498 0 0 0 1.477 1.544c.825.008 1.518-.686 1.517-1.52a1.517 1.517 0 0 0-1.455-1.503 1.483 1.483 0 0 0-1.539 1.479m10.02.008a1.483 1.483 0 0 0-1.528-1.489c-.793.02-1.463.7-1.472 1.495-.009.817.698 1.532 1.515 1.531.83 0 1.496-.69 1.486-1.537m3.668-5.293 15.375.001c1.497 0 2.095.597 2.102 2.11.009 2.151.009 4.301.001 6.452-.005 1.44-.642 2.072-2.074 2.072H50.07c-1.527 0-2.135-.608-2.141-2.153a685.2 685.2 0 0 1 .002-6.378c.01-1.516.606-2.102 2.11-2.103 5.173-.002 10.347 0 15.52 0" fill="#C89A32"/>
        <path d="M67.638 93.584c.001-1.28.019-2.561-.008-3.841-.01-.456.09-.642.588-.631 1.443.03 2.888.026 4.331.002.448-.008.576.14.573.581a743.04 743.04 0 0 0-.005 7.83c.001.321-.096.538-.358.73-.7.512-1.389 1.04-2.062 1.586-.258.21-.455.221-.674-.021-.032-.035-.075-.06-.113-.09-.74-.576-1.764-1.011-2.142-1.77-.38-.758-.117-1.84-.129-2.78-.007-.532-.001-1.064 0-1.596M63.329 95.33c0 1.28-.015 2.561.008 3.84.008.439-.065.654-.578.642a114.003 114.003 0 0 0-4.33-.003c-.433.006-.586-.116-.583-.57.019-2.609.014-5.218.004-7.826-.001-.318.078-.542.343-.737a57.09 57.09 0 0 0 2.061-1.585c.254-.204.46-.224.688.008a.529.529 0 0 0 .054.047c.76.591 1.788 1.037 2.203 1.814.384.717.116 1.788.129 2.704.007.555.001 1.111 0 1.667" fill="#12907E"/>
    </g>
</svg>
