<svg width="345" height="676" viewBox="0 0 345 676" xmlns="http://www.w3.org/2000/svg">
    <g fill="#C89A32" fill-rule="evenodd">
        <path d="M318.836 534.502 311.164 542v-78l7.672 7.498zM206.16 360l7.68 7.499v271.002L206.16 646zM276.16 430l7.68 7.49v132.028L276.16 577zM175.464 331l2.376 2.32v340.36l-2.376 2.32-5.304-5.172V336.18zM241.16 395l7.68 7.51-.008 201.98-7.672 7.51zM65.164 439.52l7.672-7.52v142l-7.672-7.52zM30.164 474.463 37.836 467v72l-7.672-7.463zM135.164 370.484l7.672-7.484v280l-7.672-7.491zM100.16 405.5l7.68-7.5v211l-7.68-7.493z"/>
        <path d="M0 172.504 172.5 345 345 172.504 172.5 0z"/>
    </g>
</svg>
