<svg width="37" height="37" viewBox="0 0 37 37" xmlns="http://www.w3.org/2000/svg">
    <g fill="none" fill-rule="evenodd">
        <circle fill="#C89A32" cx="18.5" cy="18.5" r="18.5"/>
        <path d="M18.5 9c-4.69 0-8.5 3.661-8.5 8.166 0 2.75 1.658 5.05 3.584 6.655.61.504 1.672 1.307 2.621 2.49 1.048 1.32 1.998 2.736 2.295 3.689.297-.953 1.247-2.368 2.295-3.688.95-1.184 2.012-1.987 2.62-2.49C25.344 22.214 27 19.914 27 17.165 27 12.66 23.19 9 18.5 9zm-.258 3.5c2.561 0 4.637 2.015 4.637 4.5s-2.076 4.5-4.637 4.5c-2.56 0-4.636-2.015-4.636-4.5s2.076-4.5 4.636-4.5z" fill="#FFF" fill-rule="nonzero"/>
    </g>
</svg>
