<svg width="37" height="37" viewBox="0 0 37 37" xmlns="http://www.w3.org/2000/svg">
    <g fill="none" fill-rule="evenodd">
        <circle fill="#C89A32" cx="18.5" cy="18.5" r="18.5"/>
        <path d="M11.1 12h14.8c1.396 0 2.1.688 2.1 2.088v9.824C28 25.3 27.296 26 25.9 26H11.1C9.704 26 9 25.3 9 23.912v-9.824c0-1.4.704-2.088 2.1-2.088zm7.394 10.033 7.529-6.451c.268-.234.48-.77.145-1.249-.324-.478-.916-.49-1.307-.198l-6.367 4.503-6.355-4.503c-.391-.292-.983-.28-1.307.198-.335.479-.123 1.015.145 1.249l7.517 6.451z" fill="#FFF" fill-rule="nonzero"/>
    </g>
</svg>
