<svg width="88" height="88" viewBox="0 0 88 88" xmlns="http://www.w3.org/2000/svg">
    <g fill="none" fill-rule="evenodd">
        <path d="M69.28 38.958c-.251.273-.581.168-.883.177-.44.012-.88-.007-1.32.007-.452.013-.7-.154-.656-.646.017-.182.003-.368.003-.552 0-10.337 0-20.674.01-31.01.001-.396-.144-.538-.507-.531-.22.004-.44 0-.66 0H11.414c-.798 0-.793 0-.793.772 0 23.308.003 46.617-.014 69.925 0 .606.301.602.717.602 4.62-.004 9.241-.003 13.862-.003 7.26 0 14.522-.001 21.783.004.439 0 .876-.081 1.317-.005.17.029.327.058.428.208.506.76 1.01 1.522 1.51 2.287.023.037-.002.107-.004.162l-.173.021c-.417-.039-.834-.112-1.251-.112-10.742-.007-21.483-.005-32.224-.005-.347 0-.69.012-.98.24l-.094.092c-.372.305-.333.692.098.99l-.004-.001c.159.188.375.113.567.113 11.428.004 22.856.004 34.284 0 .192 0 .406.072.573-.1l.15-.036c.196.016.323.133.458.269.622.62 1.206 1.283 1.946 1.774.181.12.294.296.25.514-.048.25-.265.2-.446.2l-30.423-.01c-2.824 0-5.648 0-8.472.002-1.28 0-1.733-.447-1.728-1.715.003-.497-.022-.996.012-1.492.027-.396-.131-.53-.501-.527-1.027.008-2.054.006-3.08.003-.886-.002-1.397-.51-1.397-1.394L7.784 4.936c0-.927.49-1.409 1.42-1.409 19.55 0 39.098.005 58.646-.016.761 0 1.538.607 1.53 1.574-.005.516.02 1.033-.012 1.547-.03.499.145.698.658.68.916-.03 1.834.012 2.75-.017.846-.027 1.596.552 1.592 1.59-.035 10.1-.021 20.198-.022 30.296 0 .166.01.334-.014.496-.034.226-.24.368-.392.239-.658-.567-1.432-.759-2.262-.829-.069-.006-.128-.121-.192-.186l-.037-.338.063.016c.308-.103.193-.366.193-.564.005-8.99.005-17.981.004-26.972 0-.93-.177-1.109-1.079-1.11-.22 0-.44-.003-.66 0-.678.01-.792.127-.792.812 0 9.083-.001 18.166.002 27.248 0 .195-.066.41.1.579l.049.114-.049.272" fill="#FFF"/>
        <path d="M3.211 62.966c0 5.527-.01 11.054.004 16.58.005 2.179 1.132 3.699 2.905 4.818.579.365 1.224.572 1.867.746.662.178.917.693 1.051 1.222.12.47-.187.936-.547 1.25-.529.464-1.097.552-1.795.212-.642-.312-1.363-.475-1.985-.848-1.568-.941-2.792-2.21-3.609-3.866-.439-.89-.643-1.829-.836-2.804-.204-1.032-.16-2.043-.161-3.06C.089 66.66.095 56.103.095 45.547c0-1.028.618-1.733 1.493-1.839.894-.108 1.595.955 1.618 1.794.027.92.006 1.842.006 2.763v14.7M29.027 61.394c0-1.418-.017-2.835.01-4.252.01-.495-.126-.688-.645-.685-2.821.02-5.642.017-8.463.003-.468-.002-.642.144-.639.636.02 2.835.017 5.67.001 8.504-.002.47.134.65.625.647a725.79 725.79 0 0 1 8.518 0c.45.002.61-.137.603-.601-.025-1.417-.01-2.835-.01-4.252m-12.534-.045c0-1.639-.003-3.278.001-4.916.003-.977.786-2.04 1.652-2.474.557-.28 1.105-.317 1.692-.315 3.042.006 6.084-.02 9.126.01 1.556.015 2.827 1.289 2.862 2.778.078 3.22.049 6.444.02 9.667-.014 1.649-1.41 2.975-3.059 2.98-3.078.008-6.157-.028-9.235.015-1.578.021-3.142-1.445-3.072-3.105.065-1.544.014-3.093.013-4.64" fill="#FFF"/>
        <path d="M24.118 31.239c-1.65 0-3.303-.07-4.948.023-1.152.066-2.652-1.464-2.651-2.573.003-3.39-.025-6.779.017-10.168.014-1.051 1.25-2.465 2.557-2.463 3.354.007 6.709-.007 10.063.014.376.002.93-.07 1.081.333.14.37-.345.63-.575.925-.079.102-.198.177-.257.287-.546 1.023-1.426 1.166-2.493 1.134-2.308-.07-4.62-.01-6.929-.033-.524-.005-.717.168-.714.697.014 2.837.012 5.674 0 8.51-.002.444.149.632.606.63 2.86-.01 5.72-.012 8.58.002.46.002.639-.18.597-.625-.012-.128.02-.263-.008-.386-.49-2.228 1.144-3.422 2.328-4.834.087-.104.205-.172.34-.122.154.058.13.206.13.333-.005 1.897.059 3.798-.041 5.69-.067 1.254-1.24 2.713-2.79 2.642-1.627-.074-3.261-.016-4.893-.016" fill="#C89A32"/>
        <path d="M48.602 37.456c3.925 0 7.85.017 11.773-.014.732-.006 1.468.54 1.493 1.425.026.911-.715 1.481-1.474 1.48-7.904-.017-15.808-.01-23.712-.01-.82 0-1.397-.584-1.402-1.409-.005-.92.5-1.467 1.383-1.468 3.98-.004 7.96-.002 11.939-.002v-.002zM47.88 29.056c-3.613 0-7.225.002-10.838-.003-.472 0-.962.013-1.34-.348-.407-.387-.577-1.216-.374-1.731.187-.475 1.045-.968 1.689-.946 3.83.129 7.662.031 11.494.053 3.19.017 6.381.004 9.572.003.577 0 1.151-.13 1.71.197.639.373.902.86.791 1.697-.06.45-.512.868-1.105.995-.231.049-.47.079-.706.08-3.631.004-7.262.003-10.893.003M81.816 14.436c0 2.34.001 4.679-.001 7.018-.001.65-.32 1.056-.941 1.216-.723.187-1.284-.032-1.617-.583-.226-.373-.296-.743-.293-1.187.024-4.07.034-8.142.007-12.212-.016-2.39-1.171-4.155-3.207-5.313-.416-.237-.885-.464-1.413-.529-.645-.08-1.093-.531-1.266-1.15-.172-.615.23-1.08.585-1.527.125-.158.33-.125.512-.146 1.458-.164 2.616.563 3.776 1.279 1.312.81 2.264 1.983 2.955 3.316.521 1.005.935 2.092.914 3.298-.04 2.172-.011 4.346-.011 6.52M47.884 21.432h-11.22c-.982-.001-1.386-.413-1.385-1.405a1.44 1.44 0 0 1 1.44-1.453c7.425 0 14.85 0 22.276.002 1.162 0 1.828.84 1.575 1.975-.097.436-.678.876-1.19.878-1.522.006-3.044.003-4.565.003h-6.93M44.145 47.858c-2.475 0-4.949.002-7.423-.001-.816-.001-1.373-.417-1.433-1.052-.097-1.01.341-1.675 1.217-1.828.233-.04.474-.054.711-.054 4.656-.003 9.311 0 13.967-.006.673 0 1.237.145 1.67.734.33.446.357.918.156 1.344-.235.496-.616.878-1.277.872-2.529-.022-5.059-.009-7.588-.009M33.076 18.57c.04.35-.06.638-.293.911-.875 1.032-1.734 2.078-2.595 3.121-1.13 1.369-2.256 2.74-3.383 4.11-.319.388-.702.696-1.17.873-.511.194-.91-.16-1.206-.44-1.317-1.248-2.58-2.554-3.86-3.842-.412-.414-.466-1.411-.074-1.846.511-.568 1.284-.838 1.94-.331.884.684 1.592 1.552 2.39 2.325.444.43.576.438.953-.022 1.381-1.683 2.768-3.362 4.156-5.04.21-.253.385-.53.629-.761.733-.695 1.708-.627 2.327.161.195.249.172.511.186.78M33.078 37.447c.076.632-.398.984-.742 1.402-1.314 1.597-2.63 3.194-3.95 4.786-.631.762-1.294 1.497-1.91 2.27-.49.616-1.566.607-2.141.012-.953-.986-1.927-1.951-2.89-2.926-.283-.286-.576-.564-.837-.868-.488-.57-.51-1.412-.07-1.866.572-.59 1.342-.65 2.001-.163.816.604 1.445 1.403 2.18 2.091.58.543.645.527 1.138-.07a613.425 613.425 0 0 1 4.756-5.678c.368-.435.872-.67 1.424-.442.638.263 1.131.738 1.04 1.452M41.922 56.363c1.779 0 3.558-.003 5.336.001.762.002.762.025.444.699-.28.593-.529 1.202-.774 1.812-.123.307-.334.391-.645.39-3.154-.008-6.308-.004-9.462-.009-.56 0-1.364-.51-1.51-.938-.197-.583.026-1.293.506-1.741.232-.217.496-.213.768-.213 1.78-.003 3.558-.002 5.337-.001M40.742 65.528c-1.319 0-2.64-.042-3.956.02-.573.026-1.305-.573-1.466-.99-.228-.589.047-1.36.572-1.755.18-.135.376-.132.575-.132 2.95-.002 5.9-.004 8.85.002.62 0 .633.06.531.665-.076.45-.171.896-.162 1.364.013.644-.183.82-.82.823-1.375.007-2.75.002-4.124.003M3.243 41.44c0 .889-.71 1.631-1.56 1.624-.771-.006-1.743-.723-1.68-1.666.06-.908.713-1.597 1.641-1.594.89.004 1.6.73 1.599 1.636M80.47 23.462c.837.012 1.65.807 1.655 1.616.004.805-.816 1.64-1.644 1.626-.884-.015-1.686-.746-1.62-1.703.06-.86.738-1.55 1.61-1.539" fill="#FFF"/>
        <path d="M71.705 38.015c.005-8.99.005-17.981.004-26.972 0-.93-.177-1.109-1.079-1.11-.22 0-.44-.003-.66 0-.678.01-.792.127-.792.812 0 9.083-.001 18.166.002 27.248 0 .195-.066.41.1.579l.048.114-.048.272 2.206-.057-.037-.338.063.016c.308-.103.193-.366.193-.564M51.166 81.557c-.03-.117-.098-.196-.223-.214-.176-.293-.282-.646-.657-.767l-.066-.221-.173.021c-.417-.039-.834-.112-1.251-.112-10.742-.007-21.483-.005-32.224-.005-.347 0-.69.012-.98.24l-.094.092c-.02.335-.072.673.097.989h-.003c.159.188.375.113.567.113 11.428.004 22.856.004 34.284 0 .192 0 .406.072.573-.1l.15-.036" fill="#12907E"/>
        <path d="M15.498 80.592c-.02.335-.072.673.098.99-.431-.3-.47-.686-.098-.99" fill="#457498"/>
        <path d="M69.275 78.966c0-.442.012-.883-.002-1.324-.024-.727-.548-1.271-1.274-1.345-.538-.056-1.183.472-1.337 1.098-.226.924-.147 1.868-.083 2.795.062.889.737 1.447 1.468 1.38.743-.067 1.228-.704 1.229-1.612v-.992m11.116-11.213c.508 0 .93.018 1.35-.004a1.391 1.391 0 0 0 1.282-1.225c.066-.617-.293-1.29-.835-1.392a9.562 9.562 0 0 0-3.436-.008c-.438.077-.956.796-.969 1.233-.012.439.42 1.022.853 1.235.6.296 1.23.084 1.755.161M69.275 53.854h-.002c0-.46.018-.92-.005-1.38-.035-.689-.556-1.228-1.209-1.274-.613-.044-1.327.42-1.424 1.096-.138.957-.103 1.908-.063 2.857.033.788.769 1.362 1.489 1.307.718-.055 1.204-.655 1.214-1.502.004-.368 0-.736 0-1.104M55.323 65.011c-.436.031-1.006-.07-1.565.086-.497.138-.908.65-.958 1.218-.04.463.304 1.062.759 1.228 1.118.407 2.278.255 3.408.123.766-.09 1.156-.735 1.08-1.419-.078-.703-.67-1.215-1.442-1.235-.384-.01-.77-.001-1.282-.001m8.671 1.59c-.05.843.27 1.588.762 2.273 1.356 1.881 3.963 2.099 5.638.79.693-.542 1.071-1.268 1.35-2.081.237-.688.269-1.371-.004-2.033-.156-.377-.148-.614.159-.917 1.917-1.899 3.814-3.819 5.713-5.735.78-.788.752-1.62-.066-2.262-.623-.489-1.357-.393-2.035.286a1049.9 1049.9 0 0 0-5.48 5.514c-.302.307-.574.403-1.018.305-.715-.157-1.488-.203-2.181.004-1.602.48-2.9 2.039-2.838 3.856m-12.078-.102c-.052-9.058 7.271-16.13 16.067-16.098 8.843.033 16.174 7.056 16.014 16.45-.153 9.042-7.246 15.848-16.046 15.874a15.971 15.971 0 0 1-16.035-16.226" fill="#C89A32"/>
        <path d="M29.028 61.394c0 1.417-.016 2.835.009 4.252.008.464-.153.603-.603.6-2.84-.015-5.679-.017-8.518.001-.491.003-.627-.177-.625-.647.016-2.835.018-5.67-.001-8.504-.003-.492.171-.638.639-.636 2.82.014 5.642.017 8.463-.003.52-.003.655.19.645.685-.027 1.417-.01 2.834-.01 4.252" fill="#12907E"/>
        <path d="M31.959 42.18c0-.184.005-.369-.008-.552a.386.386 0 0 0-.25-.338c-.169-.07-.255.044-.358.166-.59.7-1.226 1.366-1.773 2.099-.23.307-.62.554-.629.992-.016.737-.057 1.481.03 2.208.06.51-.132.563-.528.562-2.842-.006-5.685-.01-8.527.005-.457.002-.602-.154-.6-.61.017-2.801.02-5.603-.001-8.403-.004-.52.174-.66.67-.657 2.678.02 5.356.004 8.033.016.359.001.62-.093.862-.37.492-.563.898-1.198 1.447-1.716.171-.162.143-.408-.093-.5-.416-.162-.793-.384-1.29-.378-2.988.032-5.978.015-8.967.017-.579 0-1.124.072-1.702.252-.862.269-1.888 1.81-1.887 2.628.004 3.261.005 6.523 0 9.785-.002 1.422 1.762 2.973 2.946 2.905 1.59-.092 3.19-.023 4.785-.022 1.503 0 3.013-.086 4.51.022 1.879.136 3.344-1.574 3.332-3.357-.01-1.584-.002-3.17-.002-4.754" fill="#C89A32"/>
        <path d="M63.994 66.6c-.062-1.816 1.236-3.376 2.837-3.855.694-.207 1.467-.161 2.182-.004.444.098.716.002 1.018-.305 1.818-1.847 3.649-3.68 5.48-5.514.678-.679 1.412-.775 2.035-.286.818.641.847 1.474.066 2.262-1.9 1.916-3.796 3.836-5.713 5.735-.307.303-.315.54-.16.917.274.662.242 1.345.005 2.033-.279.813-.657 1.539-1.35 2.08-1.674 1.31-4.282 1.092-5.638-.79-.493-.684-.812-1.43-.762-2.272M55.323 65.01c.513 0 .898-.007 1.282.002.771.02 1.364.532 1.442 1.235.076.684-.314 1.33-1.08 1.419-1.13.132-2.29.284-3.408-.123-.455-.166-.8-.765-.759-1.228.05-.568.461-1.08.958-1.218.56-.156 1.13-.055 1.565-.086M69.275 53.854c0 .368.004.736 0 1.104-.01.847-.496 1.447-1.214 1.502-.72.055-1.456-.519-1.49-1.307-.039-.948-.074-1.9.064-2.857.097-.677.81-1.14 1.424-1.096.653.046 1.174.585 1.21 1.275.022.458.004.92.004 1.38h.002zM80.392 67.753c-.525-.077-1.155.135-1.755-.16-.433-.214-.865-.797-.853-1.236.013-.437.531-1.156.97-1.233a9.562 9.562 0 0 1 3.436.008c.541.102.9.775.834 1.393a1.391 1.391 0 0 1-1.281 1.224c-.42.022-.843.004-1.35.004M69.276 78.966v.992c0 .908-.486 1.545-1.229 1.612-.73.067-1.406-.491-1.468-1.38-.064-.927-.144-1.87.083-2.795.154-.626.799-1.154 1.337-1.098.726.074 1.25.618 1.274 1.345.014.44.002.882.003 1.324" fill="#FFF"/>
        <path d="M51.916 66.499A15.97 15.97 0 0 0 67.95 82.725c8.8-.026 15.893-6.832 16.046-15.874.16-9.394-7.171-16.417-16.014-16.45-8.796-.032-16.12 7.04-16.067 16.098m11.103 19.729c-.101-.089-.219-.103-.345-.078-.4-.113-.769-.334-1.193-.367a.26.26 0 0 0-.257-.044c-.985-.532-2.021-.954-3.043-1.406-.026-.085-.086-.117-.17-.11-.345-.31-.75-.526-1.156-.74-.01-.03-.03-.041-.061-.034-.124-.165-.297-.256-.486-.323l.003.003a7.104 7.104 0 0 0-1.434-1.11l-.064-.1-2.03-1.99-.002-.001c-.04-.179-.162-.283-.32-.355a78.996 78.996 0 0 1-.097-.096.428.428 0 0 0-.225-.274c.005-.09-.033-.146-.123-.162a.3.3 0 0 0-.218-.235l-.047-.096c-.078-.3-.298-.502-.492-.723l.004-.033-.027-.018c-.056-.186-.135-.356-.318-.452l.004.004c-.062-.288-.25-.5-.433-.714.013-.027.006-.045-.022-.054-.335-.625-.539-1.322-1.035-1.856l-.051-.249c-.217-.653-.346-1.342-.767-1.912l-.02-.3c.02-.44-.25-.791-.372-1.188.048-.161.057-.32-.043-.467.043-.34-.11-.646-.187-.959-.182-.738-.01-1.5-.194-2.232a.412.412 0 0 0-.06-.35c.067-.44.05-.881.005-1.322l.056-.237c.082-1.104.155-2.21.37-3.299a.537.537 0 0 0 .055-.469c.125-.434.45-.81.375-1.303l.016-.295c.181-.116.27-.309.321-.494.181-.647.492-1.24.723-1.865l.06-.159c.14-.28.412-.493.433-.836l.052-.244c.515-.445.725-1.098 1.102-1.637l.06-.178c.334-.235.543-.566.71-.929a.091.091 0 0 0 .054-.088c.154-.075.286-.17.334-.346l-.004.004c.12-.036.18-.112.16-.242.15-.045.26-.13.282-.297a.385.385 0 0 0 .244-.235c.037.003.063-.013.077-.048.177-.08.282-.227.37-.392l.082-.09a.417.417 0 0 0 .24-.244c.037.003.063-.013.078-.047.18-.077.279-.23.37-.393l.083-.086c.12-.046.2-.132.257-.244.09 0 .15-.04.169-.133a.522.522 0 0 0 .36-.314l.093-.088a.426.426 0 0 0 .263-.239l.167-.069c.253-.004.341-.23.49-.373.088.008.15-.024.174-.114a3.347 3.347 0 0 0 1.029-.661c.088.007.153-.024.18-.115.182-.081.373-.146.543-.247.728-.433 1.558-.671 2.243-1.187l.183-.016c.397.064.644-.25.964-.382.127.044.247.039.357-.047.507-.09.981-.303 1.496-.377.419-.06.843-.148 1.229-.348.162.038.326.08.463-.065.399-.227.166-.582.137-.866-.022-.212-.264-.275-.485-.232-.965.19-1.599-.241-2.013-1.084.057-.641.052-1.283.006-1.924.367-.766.97-1.05 1.813-1.037 2.27.033 4.54.016 6.81.007.468-.002.91.064 1.318.3l.063.087c.514 1.016.463 2.052.105 3.098l-.055.095c-.464.353-.963.593-1.566.468-.238-.05-.504-.023-.541.22-.043.281-.258.639.132.87.138.149.301.105.464.063.872.381 1.828.44 2.725.725l.245.05c.346.164.67.39 1.077.383l.182.012c.095.126.201.233.371.241.085.121.193.187.345.146.42.249.842.492 1.304.654l.157.069c.186.158.369.322.612.391l.158.05c.142.148.298.27.502.316.13.209.322.33.55.403a.076.076 0 0 0 .081.05.536.536 0 0 0 .361.267l.095.059c.083.178.168.174.254.002l.097-.095a.364.364 0 0 0 .24-.235l.093-.09c.16-.086.31-.181.376-.363l.06-.093a.327.327 0 0 0 .234-.23l.1-.087c.615-.339 1.236-.294 1.86-.03l.106.112a.497.497 0 0 0 .334.33c.045.177.167.273.334.323l.1.121c.057.167.17.276.337.328l.113.111a.477.477 0 0 0 .325.337l-.002-.002c.426.556.828 1.119.493 1.877l-.065.165-1.201 1.18c-.157.155-.25.35-.104.536.342.436.548.974.982 1.34l-.006-.005c.14.428.355.812.66 1.144l.063.173 1.147 2.496.019.16.704 2.41c-.047.16-.054.317.052.46-.057.24.053.407.236.542v6.661c-.261.15-.337.37-.252.654-.072.112-.068.23-.033.352-.068.524-.462.965-.381 1.526l-.012.183c-.162.163-.29.342-.27.59-.103.098-.148.213-.107.355-.129.241-.292.468-.326.751a.438.438 0 0 0-.07.392c-.166.125-.307.266-.316.493l-.024.022.01.031a2.239 2.239 0 0 0-.382.72c-.1.101-.144.217-.099.358-.175.08-.261.223-.29.407l.007-.005c-.31.374-.563.784-.756 1.23l-.026.02.005.032c-.34.287-.57.656-.766 1.05-.032.04-.065.078-.098.117-.157.05-.2.185-.243.322l-.095.096-2.326 2.336-.09.11c-.332.14-.6.355-.788.665l-.087.065c-.202.105-.45.14-.559.382l.003-.003c-.185.065-.354.152-.459.33a.087.087 0 0 0-.087.053c-.678.258-1.245.72-1.889 1.049-.817.417-1.694.703-2.481 1.18l-.256.043c-.444-.029-.787.272-1.193.367l-.236.047c-.439.042-.859.151-1.254.35l-.504.015c-.917.092-1.833.2-2.751.272-1.295.1-2.568-.16-3.85-.268a1.773 1.773 0 0 0-.725-.019c-.275-.205-.577-.328-.925-.318" fill="#FFF"/>
    </g>
</svg>
