<svg width="130" height="130" viewBox="0 0 130 130" xmlns="http://www.w3.org/2000/svg">
    <g fill="none" fill-rule="evenodd">
        <rect fill="#EDD7AB" opacity=".215" width="130" height="130" rx="50"/>
        <path d="M53.113 52.501c-6.767 7.494-5.394 17.91.804 23.52 6.296 5.698 16.088 5.621 22.212-.166 6.004-5.675 7.467-15.848.634-23.372.271-.296.549-.6.828-.902 2.715-2.939 4.265-6.402 4.624-10.398.134-1.492 1.496-1.753 2.465-2.274.384-.207 1.317.21 1.767.608 1.298 1.151 2.472 2.443 3.707 3.667.748.743.834 1.497.203 2.373-1.152 1.599-2.248 3.24-3.406 4.834-.57.784-.564 1.503-.161 2.373a72.747 72.747 0 0 1 2.094 5.017c.304.81.728 1.3 1.601 1.445 2.013.333 4.015.736 6.028 1.071 1.01.169 1.477.73 1.474 1.737-.004 1.782-.032 3.565.012 5.346.03 1.199-.559 1.783-1.663 1.975-1.858.324-3.713.672-5.576.966-.949.15-1.483.666-1.813 1.555-.618 1.664-1.256 3.324-1.987 4.94-.403.891-.325 1.616.22 2.378 1.102 1.54 2.158 3.115 3.277 4.642.69.94.663 1.738-.185 2.56a171.153 171.153 0 0 0-3.682 3.695c-.774.797-1.543.875-2.453.205-1.553-1.145-3.159-2.217-4.71-3.363-.816-.603-1.553-.6-2.462-.162a55.832 55.832 0 0 1-4.885 2.061c-.857.315-1.354.76-1.502 1.684-.318 1.986-.726 3.957-1.044 5.943-.172 1.07-.74 1.55-1.797 1.541-1.735-.014-3.47.003-5.204-.006-1.32-.007-1.796-.409-2.027-1.714-.33-1.867-.665-3.733-.957-5.606-.147-.943-.618-1.496-1.524-1.829a80.95 80.95 0 0 1-4.912-2.006c-.867-.385-1.612-.357-2.38.2a327.36 327.36 0 0 1-4.63 3.279c-1.11.775-1.643.72-2.62-.25-1.207-1.198-2.386-2.424-3.605-3.608-.804-.78-.869-1.554-.21-2.463 1.156-1.597 2.257-3.233 3.41-4.831.54-.746.538-1.44.158-2.272a75.286 75.286 0 0 1-2.141-5.122c-.33-.89-.907-1.292-1.766-1.44-1.86-.32-3.718-.644-5.577-.966-1.407-.243-1.74-.633-1.747-2.09a598.483 598.483 0 0 1 0-4.88c.005-1.459.314-1.855 1.715-2.123 1.853-.356 3.706-.711 5.568-1.013.963-.156 1.45-.702 1.773-1.587.597-1.63 1.223-3.256 1.951-4.83.431-.93.352-1.684-.222-2.482a321.215 321.215 0 0 1-3.199-4.555c-.836-1.207-.792-1.647.258-2.714 1.166-1.184 2.36-2.34 3.51-3.54.813-.848 1.593-.848 2.561-.218 1.111.724 1.781 1.49 1.961 2.97.461 3.787 1.626 5.787 5.232 10.197" fill="#12907E"/>
        <path d="M70.938 27c4.769 2.708 7.487 6.506 7.79 11.74.32 5.52-1.963 9.855-6.652 12.798-1.998 1.255-2.88 2.955-2.859 5.308.054 6.004-.004 12.009.04 18.012.007.912-.265 1.454-1.144 1.473-2.136.046-4.275.043-6.41-.005-.816-.018-1.113-.507-1.107-1.387.043-5.849-.04-11.699.05-17.547.042-2.749-.962-4.633-3.302-6.146-8.536-5.518-8.46-17.88.06-23.41.378-.245.788-.443 1.395-.783 0 2.08-.008 3.954.004 5.829.006.85-.04 1.717.098 2.55.362 2.174 2.316 3.954 4.552 4.159.955.087 1.933.094 2.886-.007 2.562-.274 4.487-2.402 4.58-5.017.045-1.238.016-2.478.018-3.718.002-1.19 0-2.382 0-3.849" fill="#C89A32"/>
    </g>
</svg>
