<svg width="100" height="194" viewBox="0 0 100 194" xmlns="http://www.w3.org/2000/svg">
    <g fill="none" fill-rule="evenodd">
        <path fill="#C89A32" d="m91.977 153.543-2.18 2.152v-22.386l2.18 2.152zM59.514 103.463l2.183 2.152v77.771l-2.183 2.152zM79.702 123.358l2.182 2.155v37.976l-2.182 2.152zM50.928 95l.675.666v97.668l-.675.666-1.508-1.484v-96.03zM69.608 113.41l2.183 2.153-.003 57.874-2.18 2.152zM19.14 126.334l2.18-2.153v40.64l-2.18-2.152zM9.047 136.281l2.18-2.15v20.74l-2.18-2.15zM39.328 106.434l2.18-2.15v80.434l-2.18-2.152zM29.233 116.384l2.183-2.152v60.537l-2.183-2.15z"/>
        <path fill="#EDD7AB" d="M.518 49.57 50.001 99l49.482-49.43L50.001.135z"/>
    </g>
</svg>
