<svg width="130" height="130" viewBox="0 0 130 130" xmlns="http://www.w3.org/2000/svg">
    <g fill="none" fill-rule="evenodd">
        <rect fill="#EDD7AB" opacity=".215" width="130" height="130" rx="50"/>
        <path d="M65.298 95.703c-1.907.002-3.41 1.525-3.407 3.453a3.403 3.403 0 0 0 3.437 3.423 3.406 3.406 0 0 0 3.372-3.414c.01-1.918-1.51-3.464-3.402-3.462m20.96-53.698V38.06H44.405v54.926h41.85v-.933c0-6.485.008-12.97-.014-19.454-.002-.63.132-1.097.629-1.504.563-.462 1.062-1.004 1.695-1.612.026.33.057.544.057.757.003 9.094.013 18.188-.002 27.282-.008 4.786-3.654 8.465-8.38 8.47-9.926.01-19.852.007-29.778.001-4.845-.002-8.447-3.622-8.454-8.536-.017-10.65-.005-21.299-.005-31.948 0-10.624-.005-21.247.002-31.87.003-4.14 2.448-7.408 6.275-8.373a8.656 8.656 0 0 1 2.085-.253c9.951-.016 19.904-.018 29.856-.008 4.732.004 8.372 3.675 8.4 8.45.013 2.057-.012 4.113.015 6.169.006.474-.125.778-.523 1.035-.587.38-1.137.818-1.857 1.345" fill="#12907E"/>
        <path d="M75.277 58.445c2.284 1.452 5.175 5.05 6.118 7.643L70.758 71.99c-.549-1.695-1.645-2.882-3.02-3.789 2.523-3.265 5.03-6.51 7.54-9.756zm33.118-21.436c.956 1.11.783 2.645-.543 3.93-3.682 3.574-7.392 7.12-11.093 10.673-4.439 4.26-8.88 8.517-13.322 12.775-.186.179-.38.35-.655.602-1.498-2.96-3.559-5.34-6.089-7.417.237-.195.422-.36.62-.507 9.101-6.678 18.203-13.355 27.306-20.03 1.501-1.1 2.847-1.103 3.776-.026z" fill="#C89A32"/>
        <path d="M52.438 83.765c.892-4.364 2.002-8.585 5.41-11.727 1.273-1.173 2.731-2.04 4.467-2.256 4.26-.53 7.052 2.67 6.081 6.929-.681 2.989-2.873 4.824-6.276 5.235-.955.115-1.916.186-2.872.288-1.163.124-2.345.164-3.48.416-1.101.244-2.154.711-3.33 1.115" fill="#12907E"/>
    </g>
</svg>
