<svg width="130" height="130" viewBox="0 0 130 130" xmlns="http://www.w3.org/2000/svg">
    <g fill="none" fill-rule="evenodd">
        <rect fill="#EDD7AB" opacity=".215" width="130" height="130" rx="50"/>
        <path d="M38.737 68.66c7.56 3.308 14.852 3.213 21.81-.986 6.922-4.176 10.431-10.506 10.973-18.552.286-.016.548-.043.81-.043 4.434-.003 8.867-.003 13.3 0 1.371.001 1.806.565 1.54 1.943a40005.16 40005.16 0 0 0-5.004 26.042c-.265 1.383-.458 1.543-2.013 1.546-11.575.017-23.15.046-34.726.042-3.382-.001-2.8.364-3.985-2.768-.89-2.35-1.763-4.706-2.705-7.225" fill="#12907E"/>
        <path d="M95.968 46.52c-.337 2.046-.72 4.374-1.105 6.702-1.371 8.281-2.75 16.562-4.11 24.845-.26 1.588-.263 3.228-1.244 4.632-1.304 1.867-3.047 3.015-5.35 3.03-6.816.043-13.632.013-20.447.017-6.364.004-12.727.01-19.09.027-1.538.003-2.3.789-2.336 2.34-.012.538.012 1.085-.079 1.611-.128.744-.675 1.148-1.394 1.196-.77.05-1.355-.352-1.601-1.08-.79-2.328.475-5.488 2.724-6.556.81-.386 1.788-.59 2.69-.594 8.459-.04 16.918-.02 25.377-.016 4.518.002 9.036.023 13.554.005 2.292-.009 3.585-1.344 3.93-3.625.747-4.95 1.598-9.884 2.414-14.823.927-5.62 1.894-11.234 2.77-16.862.22-1.414.408-2.78 1.387-3.913.119-.137.08-.493-.002-.703-.446-1.15-.218-1.988.846-2.61a542.422 542.422 0 0 1 7.44-4.272c1.163-.655 2.15-.366 2.839.78.51.849 1.012 1.704 1.489 2.572.619 1.127.366 2.11-.747 2.761-2.47 1.442-4.926 2.912-7.457 4.24-.652.342-1.56.2-2.498.296" fill="#12907E"/>
        <path d="M52.587 91.508c-1.797-.012-3.218 1.377-3.23 3.16a3.185 3.185 0 0 0 3.194 3.203c1.759-.01 3.228-1.482 3.21-3.216-.019-1.716-1.45-3.134-3.174-3.147m6.285 3.193c-.008 3.492-2.855 6.329-6.321 6.299-3.564-.03-6.374-2.854-6.35-6.378.023-3.46 2.897-6.278 6.382-6.257a6.312 6.312 0 0 1 6.29 6.336M77.103 97.871a3.171 3.171 0 0 0 3.19-3.205c-.02-1.79-1.437-3.175-3.233-3.158-1.729.016-3.151 1.434-3.165 3.152-.013 1.746 1.452 3.212 3.208 3.211m6.353-3.164c-.012 3.465-2.86 6.288-6.347 6.29-3.492.004-6.34-2.823-6.336-6.29.003-3.526 2.87-6.378 6.377-6.342 3.488.036 6.317 2.882 6.306 6.342" fill="#12907E"/>
        <path d="M54.545 61.376c-.66 2.019-1.353 3.897-2.76 5.406-1.146 1.23-2.165 1.23-3.304.016-1.39-1.48-2.075-3.322-2.738-5.273 2.947-.716 5.799-.722 8.802-.149zM42.55 62.468l2.053 4.734-5.035-2.207-.025-.379 3.007-2.148zm15.184-.207 2.779 1.622.009.337-4.366 2.366-.117-.178 1.695-4.147zM40.818 50.906c.14 1.577.253 3.123.425 4.662.12 1.07.354 2.128.466 3.199.029.268-.131.684-.345.83-1.478 1.004-2.993 1.956-4.651 3.023-3.254-3.019-5.197-6.96-5.713-11.714h9.818zm27.134.01c-.394 4.238-2.055 7.828-4.829 10.84l-4.547-2.705.906-8.135h8.47zm-11.718.007-.807 7.323c-3.563-.668-6.97-.656-10.58.154l-.825-7.477h12.212zm-19.51-15.051c1.69 1.082 3.271 2.083 4.832 3.112.147.097.266.387.242.567-.344 2.662-.715 5.32-1.088 8.043h-9.709c.52-4.767 2.486-8.676 5.722-11.722zm26.388.875c2.772 2.97 4.416 6.577 4.842 10.837h-8.48l-.942-8.13 4.58-2.707zm-18.245 3.367c3.543.744 6.94.838 10.522.12l.834 7.337H44.045l.822-7.457zm6.796-8.312c1.459 1.473 2.15 3.356 2.815 5.324-2.916.556-5.74.536-8.671-.136.653-1.916 1.354-3.715 2.735-5.155 1.055-1.101 2.05-1.114 3.12-.033zm4.353.075 4.762 2.558-3.094 1.831-1.76-4.197.092-.192zm-11.27-.628L43.66 33.69l-.518 1.163-.529 1.186-3.094-2.184.058-.343 5.17-2.263z" fill="#C89A32"/>
    </g>
</svg>
