<svg width="101" height="104" viewBox="0 0 101 104" xmlns="http://www.w3.org/2000/svg" xmlns:xlink="http://www.w3.org/1999/xlink">
    <defs>
        <path id="mt3w6ssf5a" d="M0 0h101v104H0z"/>
    </defs>
    <g fill="none" fill-rule="evenodd">
        <g>
            <mask id="8b9jv64vkb" fill="#fff">
                <use xlink:href="#mt3w6ssf5a"/>
            </mask>
            <path d="M38.105 52.619c-.252.004-.203.253-.205.425-.012.873-.011 1.747-.007 2.62.007 1.442-.277 2.81-1.133 3.997-.294.408-.212.62.127.938 2.827 2.653 5.644 5.318 8.443 8.002.397.381.627.378 1.022 0 2.833-2.711 5.685-5.403 8.543-8.09.272-.256.353-.421.111-.767a6.343 6.343 0 0 1-1.175-3.78c.01-.917-.024-1.836-.007-2.754.008-.468-.003-.704-.603-.464-1.263.507-2.574.852-3.923 1.107-2.903.55-5.75.355-8.587-.367a21.606 21.606 0 0 1-2.606-.867M24.757 27.804c-.242.323-.22.615-.22.902-.002.919-.001 1.837-.001 2.755 0 1.87.566 2.433 2.444 2.433 1.517 0 2.025.449 2.125 1.948.253 3.794 1.464 7.253 4.187 9.93 5.08 4.995 11.16 6.795 18.012 4.449 6.905-2.364 10.871-7.227 11.298-14.68.048-.84.433-1.28 1.246-1.555.51-.172 1.024-.07 1.535-.088.867-.033 1.508-.492 1.694-1.337.307-1.392.12-2.806.105-4.21-.002-.164-.07-.424-.179-.47-.23-.095-.312.184-.439.321-1.328 1.448-2.97 2.022-4.863 1.513-3.618-.974-7.255-1.815-10.997-2.14-4.196-.364-8.377-.266-12.548.35-2.735.405-5.397 1.108-8.061 1.816-1.362.361-2.664.169-3.875-.584-.559-.348-.996-.821-1.463-1.353m54.205 76.104a4.405 4.405 0 0 1-1.858-1.336l-.363-.788-.098-.27c-.007-.352.098-.794-.526-.642-.18-.132-.39-.074-.585-.074-4.1-.002-8.198-.002-12.297.004-.287 0-.574.046-.861.071-.715-.069-1.43-.056-2.146-.005-1.801-.125-3.603-.078-5.404.006a19.739 19.739 0 0 0-2.676 0 25.196 25.196 0 0 0-3.79-.005h-1.471a14.756 14.756 0 0 0-2.843.007c-.894-.051-1.788-.077-2.681.013-.9-.08-1.802-.084-2.702.002a9.328 9.328 0 0 0-2.152 0 .681.681 0 0 0-.537-.001.485.485 0 0 0-.401-.014 9.265 9.265 0 0 0-2.307 0c-.892-.061-1.784-.061-2.675 0a12.948 12.948 0 0 0-2.714 0c-.894-.052-1.788-.078-2.682.014-.177-.077-.356-.064-.537-.014a8.179 8.179 0 0 0-2.172 0c-.892-.061-1.783-.061-2.675 0a12.932 12.932 0 0 0-2.715 0 4.392 4.392 0 0 0-1.194-.006c-1.27-.14-2.542-.034-3.813-.046-1.159-.01-2.32-.09-3.478.05a16.054 16.054 0 0 0-2.283-.01l-1.767-.1c-.31-.06-.619-.122-.928-.183-1.632-.617-2.7-1.785-3.328-3.385.052-.434-.292-.771-.298-1.188-.008-.5-.034-1.003.202-1.47l.461-2.707c.337-1.786.683-3.571.906-5.376.224-.832.625-1.483 1.593-1.552.33.018.607.172.877.344.476.471.687 1.018.561 1.698-.243 1.317-.493 2.634-.68 3.96-.234 1.654-.71 3.276-.72 4.959-.005.973.583 1.591 1.58 1.763.381.28.823.168 1.237.168 19.663.009 39.325.01 58.988.013.629 0 1.257.004 1.885.003.128 0 .305.025.293-.167-.005-.082-.14-.156-.216-.233-1.63-1.764-1.728-3.545-.163-5.003.617-.574.55-1.006.303-1.724-.344-1.002-.84-1.34-1.918-1.315-1.671.037-2.963-1.287-3.017-2.9a54.817 54.817 0 0 1-.001-3.826c.057-1.564 1.353-2.953 2.867-2.884 1.22.056 1.783-.365 2.138-1.5.204-.653.204-1-.305-1.485-1.592-1.514-1.585-3.31-.06-4.889l1.629-1.686.18-.177.086-.093.991-.805c.848-.408 1.732-.453 2.64-.268h-.002l1.075.702.113.1.158.156.246.248.157.145-.006-.002c.192.292.417.394.705.117.477-.184.945-.4 1.435-.54.362-.103.428-.303.422-.631-.018-.894.015-1.78.593-2.541.213-.28.087-.43-.229-.51-1.142-.292-2.28-.598-3.42-.898a.507.507 0 0 0-.444-.129l-.026-.028-.034.017-.188-.066-.263-.063c-1.146-.362-2.287-.741-3.475-.947-.44-.192-.865-.495-1.311.024-1.426 1.659-2.866 3.306-4.3 4.957-.108.11-.217.22-.323.332-1.636 1.727-2.95 3.756-4.884 5.205l-1.349.65c-.174-.013-.344-.008-.48.126l-.03-.019-.027.024-.567.1-.236.033-2.222-.142c-.127-.143-.293-.166-.471-.149l.009.009a11.479 11.479 0 0 0-2.374-.803c-.091-.114-.216-.139-.353-.131l-.04-.022a20.398 20.398 0 0 0-2.738-.917c-.08-.106-.188-.131-.312-.114l-.235-.079c-.43-.16-.84-.484-1.327-.318-2.088.713-4.17 1.447-6.254 2.173l-.194.084-.039-.016-.03.03c-.099-.013-.182.01-.235.103l-.03-.009c-1.231.282-2.452.403-3.714.099-1.926-.464-3.098-1.868-4.31-3.248-1.992-2.264-3.993-4.52-5.99-6.779l-.195-.253-.085-.09-.003-.034-.034-.004-.095-.1-.036-.038-.098-.1-.025-.03c-.31-.303-.437-.88-1.015-.785-.427.072-.836.254-1.254.386l-.287.083a.891.891 0 0 0-.653.179l-.131.027c-.461.082-.92.166-1.344.378l-.148.036c-.11-.025-.204 0-.276.09l-.268.066-.268.07-.815.221-.004.013c-.18-.017-.342.014-.47.153-.68.11-1.35.254-1.98.54a8.26 8.26 0 0 0-2.83 1.068c-.044-.014-.074.001-.091.044l-.175.102a9.196 9.196 0 0 0-3.048 2.572c-.132.091-.256.188-.298.354l-.135.173c-.756.916-1.276 1.955-1.615 3.088-.223.425-.303.889-.367 1.356l-.025.14c-.086.18-.15.364-.067.564-.107.059-.112.15-.08.253-.178.28-.114.601-.15.905-.148.154-.09.367-.152.545-.116.667-.263 1.33-.34 2.002-.084.744-.416 1.287-1.089 1.62l-.791.068c-.928-.453-1.227-.925-1.15-1.805.02-.22.031-.441.047-.661.25-.875.36-1.773.468-2.673.374-1.855.809-3.691 1.67-5.396a15.842 15.842 0 0 1 3.945-4.673c.358-.174.67-.41.952-.688l1.994-1.105a.28.28 0 0 0 .274-.112l4.847-1.471a23.21 23.21 0 0 0 2.693-.752c.516-.13 1.037-.245 1.547-.394 1.64-.479 3.317-.831 4.924-1.425.562-.053 1.09-.234 1.614-.427.917-.202 1.828-.42 2.702-.768.909-.135 1.768-.499 2.689-.574.343.047.73.408 1.012-.036.194-.305.432-.621.418-1.023.246-.883.182-1.781.137-2.679.058-.899.064-1.798-.006-2.697.102-.325-.01-.54-.303-.72-.434-.268-.842-.578-1.26-.87-1.362-1.145-2.628-2.383-3.709-3.8l-1.494-2.429-.11-.262-1.077-2.702-.628-2.792-.128-.807c.015-.1-.026-.14-.126-.113l-.272-.015c-2.343-.526-3.767-1.947-4.222-4.312l-.048-2.678.092-2.294.083-.408c.212-.65.526-1.252.878-1.835.718-.52 1.245-1.101.81-2.085-.09-.207-.024-.485-.027-.73l-.038-3.411c.065-.895.053-1.79.006-2.685.054-.9.054-1.798-.001-2.697l.18-2.684c.285-.904.503-1.83.913-2.693l.856-1.433 1.056-1.254L27.88 4.43l2.428-1.203c.11.017.21.003.288-.087l2.677-.715c.923-.125 1.819-.372 2.712-.628.712-.17 1.425-.338 2.137-.507l.27-.078A19.433 19.433 0 0 0 41.36.52l2.695-.505L46.75 0l2.686.436c1.687.495 3.404.855 5.13 1.179l.274.08c.888.237 1.773.484 2.688.598.881.29 1.789.472 2.7.635.387.158.783.282 1.203.32 1.514.652 2.9 1.503 4.096 2.647.679.812 1.304 1.662 1.828 2.583.29 1.112.174 1.454-.733 2.148l-1.136-.017-.01.008c-.1-.137-.254-.168-.405-.207a.103.103 0 0 0-.107-.065l-.15-.132v-.002l-.277-.38-.009-.015c-.18-.381-.382-.748-.669-1.062a65.407 65.407 0 0 1-.113-.155.22.22 0 0 0-.165-.21l-.003-.035-.035-.004a.304.304 0 0 0-.231-.223l-.007-.038-.038-.007c-.026-.106-.096-.164-.199-.19l-.105-.107.003-.042-.044-.003c-.005-.046-.03-.071-.075-.076l-.009-.05-.05-.009c-.002-.041-.023-.062-.065-.063-.035-.103-.087-.185-.212-.186a.564.564 0 0 0-.37-.24c-.064-.112-.166-.149-.289-.144l.005-.007c-.32-.326-.718-.5-1.144-.658-1.073-.398-2.183-.645-3.296-.887l-5.1-1.112c-.078-.043-.151-.106-.234-.125-1.632-.36-3.252-.811-4.902-1.041-1.197-.167-2.441-.22-3.651.086a29.75 29.75 0 0 0-4.05.94c-.54.056-1.07.153-1.563.392l-.028-.02-.03.018c-1.752.273-3.442.814-5.175 1.173-4.068.842-6.369 3.766-6.415 7.939-.026 2.262.008 4.524-.013 6.787-.005.52.086.656.638.492 1.997-.593 3.976-1.26 6.032-1.645 1.405-.263 2.805-.557 4.208-.837 2.44-.23 4.873-.545 7.326-.634l.684-.007 1.594.005.552.004 1.337.048c.76.196 1.534.13 2.304.133l.314.031c.952.281 1.931.346 2.915.376l2.413.396 4.867 1.083.027.03.037-.016c.126.143.293.146.464.137l-.001-.002c.185.2.433.197.677.208l.232.06c.257.166.536.26.843.262l.009.001c.11.13.26.125.408.122l.03.033.042-.013c.085.112.202.118.327.098l.251.056c.341.225.619.342.61-.267-.02-1.45-.025-2.899-.037-4.348.078-.566.396-.983.824-1.333.299.1.518-.128.779-.186.55.083.958.399 1.313.8l.12.317c-.013.142-.026.284.093.396l.032.275c-.1.903-.102 1.806.002 2.708-.095.89-.092 1.782-.002 2.673-.146.677.04 1.395-.215 2.052-.184.474-.057.768.384.966.68.66 1.091 1.481 1.413 2.356.173 1.516.105 3.039.099 4.559-.01 2.66-1.504 4.492-4.114 5.037-.42.088-.573.243-.627.677-.36 2.936-1.383 5.63-3.048 8.082-1.339 1.973-3.028 3.585-4.991 4.927-.32.218-.756.4-.501.935-.045.895-.095 1.79.026 2.684-.076.909-.175 1.819.112 2.713-.005.424.204.755.465 1.062.045.041.1.125.131.117.874-.226 1.714.001 2.559.177.883.324 1.79.562 2.706.768 1.786.532 3.571 1.067 5.39 1.476.874.35 1.788.558 2.699.775.76.254 1.526.49 2.318.627l5.752 1.721c.946.356 1.787.92 2.695 1.352.3.36.71.198 1.07.202 2.043.023 2.99.685 3.649 2.589l.03.264c-.003.288-.035.58-.003.865.028.252-.187.61.254.721.116.096.232.194.399.171 1.362.727 1.363.728 2.484-.277.08-.072.15-.156.224-.235.824-.51 1.713-.71 2.676-.544.705.248 1.302.655 1.823 1.191.654.673 1.332 1.323 1.991 1.991 1.496 1.518 1.53 3.348-.001 4.835-.572.556-.707 1.02-.24 1.652.592 1.528.294 1.165 1.694 1.211.043.002.087-.017.13-.026 1.525.244 2.584 1.033 3.008 2.563.01 1.11-.006 2.222.034 3.331.042 1.144-.133 2.21-.893 3.117l.002-.002a5.287 5.287 0 0 1-2.148.968l-1.208.007c-.607.527-.713 1.288-.935 1.995-.04.119-.006.21.1.276.117.307.409.461.616.69 1.26 1.386 1.28 3.088.01 4.454-.654.704-1.375 1.346-2.024 2.054-.79.864-1.714 1.416-2.908 1.456l-.394-.044c-.084-.108-.173-.086-.264-.011-.377.02-.512-.423-.864-.45l-.336-.258-.823-.777c-.813-.425-1.347.356-2.035.473-.372.064-.4.356-.389.666.025.739-.012 1.462-.36 2.147-.521 1.024-1.414 1.496-2.474 1.746l-1.882.013-2.823-.092" fill="#FFF" mask="url(#8b9jv64vkb)"/>
        </g>
        <path d="M81.55 100.874c.426 0 .856-.035 1.278.008.561.058.76-.132.698-.703-.11-1.046.085-2.068.927-2.744 1.167-.935 2.55-1.49 4.038-1.696 1.068-.147 1.9.376 2.632 1.1.668.663.675.656 1.357-.028l1.283-1.285c.76-.758.768-.765.024-1.506-.754-.753-1.264-1.654-1.055-2.706.257-1.29.762-2.528 1.494-3.634.39-.587 1.002-.925 1.72-1.088a5.714 5.714 0 0 1 1.532-.12c.38.017.503-.108.492-.495a49.13 49.13 0 0 1 .003-2.822c.012-.413-.126-.551-.537-.534-.717.03-1.442.039-2.099-.329-1.86-1.042-2.225-2.946-2.596-4.763-.233-1.14.56-2.022 1.377-2.763.338-.307.377-.521.015-.853-.678-.62-1.33-1.27-1.954-1.945-.315-.341-.507-.302-.791.02-.494.557-1.053 1.046-1.78 1.282-1.422.461-4.78-.838-5.586-2.098-.48-.748-.543-1.55-.496-2.38.028-.473-.13-.627-.606-.608-.851.035-1.708.05-2.558-.003-.591-.037-.78.134-.756.736.054 1.32-.3 2.5-1.535 3.2-.895.505-1.857.878-2.847 1.17-1.088.32-2.031.033-2.867-.686-.238-.204-.481-.412-.673-.656-.274-.35-.46-.28-.733.015-.58.624-1.165 1.249-1.81 1.803-.501.432-.508.73-.014 1.161.63.552 1.165 1.207 1.201 2.094.071 1.738-.675 3.216-1.647 4.571-.553.77-1.438 1.02-2.38 1.023-1.23.004-1.232-.205-1.22 1.244.005.627.04 1.257-.01 1.88-.047.607.178.773.764.741 1.17-.064 2.271.207 2.988 1.203a8.586 8.586 0 0 1 1.51 3.68c.196 1.229-.44 2.155-1.303 2.938-.385.348-.417.62-.013.984.55.494 1.055 1.038 1.579 1.56.694.692.723.718 1.373.005.986-1.082 2.17-1.392 3.533-.958.742.236 1.456.573 2.161.91 1.074.51 1.803 1.28 1.881 2.554.023.377.08.756.065 1.135-.013.297.106.395.392.388.516-.014 1.032-.004 1.549-.002" fill="#12907E"/>
        <path d="M85.954 84.595a4.388 4.388 0 0 0-4.366-4.42c-2.48-.018-4.51 1.922-4.456 4.4.053 2.39 1.691 4.301 4.341 4.383 2.54.078 4.471-1.99 4.48-4.363m2.92.01c-.053 4.333-3.409 7.335-7.368 7.292-4.06-.045-7.338-3.073-7.287-7.519.043-3.756 3.065-7.117 7.311-7.142 4.111-.023 7.43 3.382 7.344 7.368M30.68 86.843v.002c1.55 0 3.1-.017 4.648.01.475.009.637-.137.602-.608a11.26 11.26 0 0 1-.008-1.545c.03-.483-.104-.658-.633-.651-2.56.031-5.12.009-7.68.024-.668.003-1.538-.289-1.953.114-.48.467-.093 1.364-.175 2.067-.058.496.167.601.618.595 1.526-.022 3.054-.008 4.58-.008zm-6.01-5.752 12.089-.002.015-.005c.114.118.26.111.407.1a.114.114 0 0 0 .124.032l.535.284-.005-.005c.058.126.174.173.296.21.004.044.027.063.07.058l.581.938.053.26c.012 1.175.01 2.351.04 3.526.024.874-.017 1.726-.507 2.492l-.001.006-.961.677-.358.106c-4.026.01-8.05.02-12.076.025-.244 0-.487-.05-.73-.077l-.245-.07-.566-.328c-.728-.667-.935-1.53-.932-2.472.002-1.156.001-2.312.002-3.469a.444.444 0 0 0 .097-.418l.04-.25.376-.695.022-.026.097-.107.028-.03.954-.64.133-.03c.146.01.293.025.407-.097l.015.007z" fill="#FFF"/>
        <path d="M85.954 84.595c-.01 2.373-1.94 4.441-4.48 4.363-2.65-.082-4.29-1.992-4.342-4.383-.054-2.478 1.977-4.418 4.456-4.4a4.388 4.388 0 0 1 4.366 4.42M30.68 86.843c-1.527 0-3.055-.014-4.581.008-.45.006-.676-.1-.618-.595.082-.703-.304-1.6.175-2.067.415-.403 1.285-.11 1.953-.114 2.56-.015 5.12.007 7.68-.024.53-.007.664.168.633.651a11.26 11.26 0 0 0 .008 1.545c.035.47-.127.617-.602.609-1.549-.028-3.099-.01-4.648-.01v-.003zM26.827 62.854c.084.113.155.226.242.325 2.331 2.665 4.65 5.34 7.003 7.985 1.118 1.256 2.504 1.542 4.094.964a86.243 86.243 0 0 1 4.321-1.467c.611-.186.405-.343.109-.622-3.053-2.873-6.108-5.743-9.143-8.636-.334-.318-.633-.341-1.027-.228-1.486.425-2.98.827-4.463 1.266-.375.11-.807.096-1.136.413M63.33 23.658h-.005c-.108-.125-.253-.127-.4-.122l-.017-.008c-1.18-.578-2.487-.745-3.734-1.084-2.003-.544-4.048-.956-6.13-1.107-.145-.055-.287-.149-.434-.16-2.01-.148-4.02-.295-6.032-.42-1.506-.094-3 .168-4.501.2-1.506.033-2.99.258-4.47.465-3.424.479-6.756 1.37-10.042 2.434-.955.31-.956.307-.722 1.267.307 1.264 1.355 2.04 2.436 1.772 1.997-.495 3.96-1.114 5.992-1.477 2.488-.444 4.978-.841 7.51-.919.493-.015.996.024 1.477-.06.94-.16 1.882-.117 2.819-.068 1.83.095 3.657.244 5.485.372.454.264.968.107 1.449.203 2.524.504 5.056.963 7.524 1.718.62.19 1.274.49 1.942.101.877-.223 1.516-1.325 1.49-2.573-.048-.151-.164-.153-.29-.13h-.006a1.507 1.507 0 0 0-.813-.257c-.022-.037-.05-.044-.087-.02-.123-.127-.274-.154-.442-.127M65.029 62.766c-2.104-.585-4.1-1.139-6.094-1.697-.23-.064-.374.041-.53.19-3.124 2.959-6.25 5.916-9.38 8.869-.267.252-.32.378.109.515 1.447.465 2.9.923 4.319 1.467 1.74.667 3.153.251 4.348-1.109 2.377-2.706 4.753-5.415 7.228-8.235" fill="#C89A32"/>
    </g>
</svg>
